<svg width="117" height="33" viewBox="0 0 117 33" fill="none" xmlns="http://www.w3.org/2000/svg">
<path fill-rule="evenodd" clip-rule="evenodd" d="M101.531 10.992C101.531 10.992 102.8 10.9253 104.224 10.6804C105.382 10.4801 106.406 9.87915 106.406 9.87915V13.7074C106.406 13.7074 107.274 10.1017 111.391 10.1017C112.282 10.1017 116.132 9.87915 116.132 15.2432C116.132 15.488 116.132 25.8601 116.132 27.062C116.132 29.6661 116.689 30.6009 116.689 30.6009C116.689 30.6009 115.131 30.4228 113.951 30.4228C112.771 30.4228 111.792 30.6009 111.792 30.6009C111.792 30.6009 112.259 29.0651 112.259 25.1256C112.259 23.1001 112.259 19.3163 112.259 17.8251C112.259 16.3338 112.482 13.0842 109.789 13.0842C106.228 13.0842 106.45 17.6025 106.45 19.6947C106.45 21.7869 106.45 26.3052 106.45 27.0174C106.45 29.5325 106.829 30.6009 106.829 30.6009C106.829 30.6009 105.671 30.4674 104.202 30.4674C102.733 30.4674 102.11 30.6009 102.11 30.6009C102.11 30.6009 102.644 29.7996 102.644 25.3704C102.644 20.9411 102.644 17.8251 102.644 16.1335C102.666 11.2814 101.531 10.992 101.531 10.992Z" fill="#787878"/>
<path d="M80.411 1.57297L77.2948 4.68915L80.411 7.80533L83.5272 4.68915L80.411 1.57297Z" fill="#787878"/>
<path fill-rule="evenodd" clip-rule="evenodd" d="M82.4565 26.7948C82.4565 25.6152 82.4565 14.2861 82.4565 12.9506C82.4565 11.6152 82.7681 9.85684 82.7681 9.85684C82.7681 9.85684 81.9446 10.3242 80.765 10.5913C79.5853 10.8807 77.5154 11.081 77.5154 11.081C77.5154 11.081 78.6728 11.4594 78.6728 15.0206C78.6728 16.9793 78.6728 23.9013 78.6728 25.1255C78.6728 29.8886 77.9828 30.5563 77.9828 30.5563C77.9828 30.5563 79.474 30.3783 80.7204 30.3783C81.9669 30.3783 83.1688 30.5563 83.1688 30.5563C83.1688 30.5563 82.4565 29.5548 82.4565 26.7948Z" fill="#787878"/>
<path fill-rule="evenodd" clip-rule="evenodd" d="M92.4057 20.0953H94.8985C94.8985 20.0953 95.4327 27.4626 91.1815 27.4626C89.9796 27.4626 88.4883 26.7948 88.4883 23.9904C88.4883 20.4959 91.315 20.0953 92.4057 20.0953ZM86.5519 14.9761C86.5519 14.9761 86.4852 14.3306 86.0845 13.2623C85.6839 12.1939 85.3945 11.8155 85.3945 11.8155C85.3945 11.8155 88.1322 10.1017 92.2721 10.1017C97.5026 10.1017 98.5487 12.461 98.5487 16.089V26.3719C98.5487 30.1112 99.3278 30.5786 99.3278 30.5786C99.3278 30.5786 98.5487 30.4673 97.3023 30.4673C96.0559 30.4673 95.0098 30.5786 95.0098 30.5786C95.0098 30.5786 94.9208 28.9983 94.9208 28.019V26.7058C94.9208 26.7058 93.7411 30.7121 89.757 30.7121C85.7729 30.7121 84.7936 27.4848 84.7936 24.6136C84.7936 22.4546 85.1497 17.8028 92.5615 17.8028C94.3198 17.8028 94.8317 17.9141 94.8317 17.9141V16.4896C94.8317 15.5548 94.8763 13.0397 91.8047 13.0397C88.4438 13.0397 86.5519 14.9761 86.5519 14.9761Z" fill="#787878"/>
<path fill-rule="evenodd" clip-rule="evenodd" d="M65.3628 22.3879C65.3628 24.7249 65.4741 28.2193 65.4741 28.2193C65.4741 28.2193 66.7205 28.4197 67.2324 28.4197C71.7284 28.4197 72.1513 23.2336 72.1513 20.674C72.1513 18.1144 71.9288 13.5739 68.8795 13.5739C65.1847 13.5739 65.3628 20.0508 65.3628 22.3879ZM61.579 9.36721V26.6168C61.579 28.709 61.1339 29.8664 61.1339 29.8664C61.1339 29.8664 63.2483 30.8012 66.5202 30.8012C73.1084 30.8012 76.0464 26.4387 76.0464 18.8489C76.0464 17.1796 76.0019 10.1017 70.3262 10.1017C66.3644 10.1017 65.2515 14.531 65.2515 14.531V11.9046C65.2515 9.83462 65.5631 2.73447 65.5631 2.73447C65.5631 2.73447 64.6505 3.2909 62.9812 3.73606C61.3119 4.18121 60.11 4.20346 60.11 4.20346C60.11 4.20346 61.579 4.4483 61.579 9.36721Z" fill="#787878"/>
<path fill-rule="evenodd" clip-rule="evenodd" d="M50.2722 18.337H56.5265C56.5265 18.337 57.1943 12.55 53.544 12.55C49.8715 12.55 50.2722 18.337 50.2722 18.337ZM60.1545 26.8839C60.1545 26.8839 59.9319 27.8632 59.8429 28.798C59.7539 29.7106 59.7984 30.2447 59.7984 30.2447C59.7984 30.2447 58.5742 30.8012 55.4359 30.8012C45.6871 30.8012 46.3994 21.4308 46.3994 20.1176C46.3994 18.8044 46.3103 10.1017 53.7889 10.1017C59.7539 10.1017 60.2213 15.1987 60.2213 18.4483C60.2213 20.6072 60.1545 20.9188 60.1545 20.9188H50.3612C50.3612 20.9188 49.6712 27.9967 56.0814 27.9967C58.8191 27.9745 60.1545 26.8839 60.1545 26.8839Z" fill="#787878"/>
<path fill-rule="evenodd" clip-rule="evenodd" d="M40.924 13.4849C40.924 13.4849 39.8779 12.7949 38.5425 12.7949C34.3358 12.7949 34.2022 17.4689 34.2022 19.6057C34.2022 21.7424 34.4248 27.3958 38.0305 27.3958C40.835 27.3958 40.9463 24.7026 40.9463 20.8298L40.924 13.4849ZM45.0417 2.73447C45.0417 2.73447 44.6188 5.91729 44.6188 10.7694V22.5882C44.6188 29.31 45.5981 30.5786 45.5981 30.5786C45.5981 30.5786 44.4407 30.4673 43.5949 30.4673C42.7491 30.4673 41.0576 30.5786 41.0576 30.5786L40.9685 27.4181C40.9685 27.4181 40.3008 30.7567 36.5615 30.7567C32.8223 30.7567 30.2849 27.2177 30.2849 20.1399C30.2849 16.868 30.8859 10.1017 38.0973 10.1017C39.8557 10.1017 41.0353 10.6359 41.0353 10.6359V7.23049C41.0353 4.67087 40.0337 4.20346 40.0337 4.20346C40.0337 4.20346 41.614 4.00315 43.0162 3.60251C44.4184 3.17962 45.0417 2.73447 45.0417 2.73447Z" fill="#787878"/>
<path fill-rule="evenodd" clip-rule="evenodd" d="M19.9129 14.3528C19.9129 14.3528 20.0464 14.2193 20.0464 13.8187C20.0464 13.418 20.0464 13.3735 19.9797 13.3735C19.9352 13.3735 19.8461 13.4625 19.8239 13.5961C19.8016 13.6851 19.7348 13.7741 19.7348 13.8409C19.7348 13.9077 19.8461 13.9077 19.8461 13.9967C19.8239 14.197 19.9129 14.3528 19.9129 14.3528Z" fill="#787878"/>
<path fill-rule="evenodd" clip-rule="evenodd" d="M15.8175 17.6024C15.8175 17.6914 16.1514 17.7805 16.4407 17.8472C16.7301 17.914 16.6855 17.8695 16.7746 17.8918C16.8636 17.9363 16.9081 17.9808 16.9749 17.8918C17.0417 17.825 17.4868 17.4689 17.42 17.4689C17.331 17.4689 17.2197 17.5802 16.9304 17.5802C16.4185 17.5802 16.2627 17.5579 16.1069 17.5579C15.9733 17.5356 15.8175 17.5579 15.8175 17.6024Z" fill="#787878"/>
<path fill-rule="evenodd" clip-rule="evenodd" d="M15.5504 32.4927C15.5504 32.4927 14.7714 32.4705 14.2595 32.4705C13.7476 32.4705 13.5918 32.4482 13.4582 32.4482C13.3247 32.4482 13.1911 32.4482 12.8573 32.3592C12.5234 32.2924 12.2118 32.1811 11.9892 32.1143C11.7667 32.0476 11.1657 31.8472 10.7651 31.7137C10.3644 31.5802 9.27382 31.224 8.65061 30.9569C8.00515 30.6899 7.04807 30.2447 6.2468 29.5992C5.44553 28.9538 4.86684 28.4418 3.90976 27.2399C2.97495 26.038 2.44077 25.1477 2.04013 24.2797C1.66175 23.4339 1.26112 22.1652 1.2166 20.852C1.19434 20.4514 1.14983 18.9824 1.14983 17.8918C1.14983 16.7789 1.17209 16.4228 1.14983 16.1334C1.12757 15.8663 1.12757 15.3767 1.12757 15.1096C1.12757 14.8425 1.2166 13.3512 1.2166 13.0619C1.2166 12.9506 1.0608 12.7058 1.0608 12.6613C1.0608 12.6167 1.66175 10.6803 1.83981 10.2129C2.01787 9.74553 2.39625 8.98877 2.46302 8.81071C2.59657 8.63265 2.61883 8.49911 2.61883 8.49911C2.61883 8.49911 2.6856 8.69942 2.77463 8.69942C2.86366 8.69942 3.01946 8.45459 3.13075 8.25427C3.24204 8.05396 3.37558 7.76461 3.44235 7.54203C3.50913 7.31946 3.62041 7.16366 3.66493 7.03011C3.70944 6.89656 3.82073 6.78528 3.8875 6.67399C3.93202 6.5627 3.95428 6.51819 4.02105 6.51819C4.08782 6.51819 4.08782 6.47367 4.19911 6.13981C4.28814 5.80595 4.44394 5.69466 4.51071 5.56111C4.57749 5.42757 4.93361 5.13822 5.11167 5.00468C5.28973 4.87113 5.62359 4.58178 5.80165 4.44824C5.97971 4.33695 6.38035 3.93631 6.60292 3.71374C6.80324 3.49116 6.87001 3.40213 6.87001 3.40213C6.87001 3.40213 6.89227 3.46891 6.89227 3.55794C6.89227 3.64697 6.89227 3.71374 7.00356 3.60245C7.11485 3.49116 7.42645 3.20182 7.64903 3.04601C7.8716 2.89021 8.22772 2.57861 8.56158 2.4228C8.89545 2.267 9.3406 2.06668 9.80801 1.88862C10.2754 1.71056 10.8319 1.5325 11.1435 1.3767C11.4551 1.2209 11.8334 1.06509 11.8334 1.06509C11.8334 1.06509 11.4996 1.39896 11.7444 1.33218C11.9892 1.28767 12.7237 1.02058 13.0353 1.02058C13.2134 1.02058 13.3247 0.998322 13.3247 0.998322C13.3247 0.998322 13.0576 1.17638 12.9241 1.24315C12.7683 1.30993 12.6347 1.42121 12.6347 1.42121C12.6347 1.42121 13.2357 1.28767 13.347 1.28767C13.4805 1.28767 13.5473 1.46573 13.7921 1.46573C14.0592 1.46573 14.4153 1.39896 14.4153 1.39896C14.4153 1.39896 14.1927 1.48799 14.1037 1.48799C14.0147 1.48799 13.9702 1.5325 13.8589 1.55476C13.7476 1.55476 13.7476 1.64379 13.9034 1.64379C14.0592 1.64379 14.4821 1.66605 14.6379 1.66605C14.9718 1.66605 14.994 1.39896 15.2834 1.39896C15.4392 1.39896 16.1069 1.64379 16.1069 1.64379L16.0179 1.30993C16.0179 1.30993 17.0417 1.71056 17.3978 1.77733C17.7539 1.82185 17.932 1.88862 18.2659 2.04443C18.5775 2.22249 19.2897 2.57861 19.2897 2.57861C19.2897 2.57861 19.5791 2.60086 19.6681 2.55635C19.7349 2.53409 19.8016 2.35603 19.9574 2.35603C20.1355 2.35603 20.7142 2.55635 20.7142 2.68989C20.7142 2.8457 20.7365 2.91247 20.8255 2.95698C20.9145 3.0015 21.6268 3.46891 21.6268 3.46891C21.6268 3.46891 21.7158 3.40213 21.6045 3.3131C21.4932 3.22407 21.1816 2.89021 21.1816 2.89021C21.1816 2.89021 21.6713 3.20182 21.8716 3.29085C22.0719 3.37988 22.6283 3.75825 22.9845 4.00309C23.3406 4.24792 23.8302 4.69307 24.1418 5.04919C24.4535 5.38305 25.1212 6.18432 25.3883 6.91882C25.6554 7.65332 26.0115 8.69942 26.0115 8.69942C26.0115 8.69942 25.6331 8.00944 25.5886 8.0317C25.5441 8.05396 25.7889 8.94426 25.8334 9.05554C25.8779 9.16683 25.8334 9.16683 25.7889 9.18909C25.7444 9.21135 25.6999 9.2336 25.7666 9.34489C25.8334 9.45618 26.056 10.1016 26.1228 10.391C26.2118 10.6803 26.3899 11.6152 26.3899 11.6152C26.3899 11.6152 26.2118 11.0142 26.1228 10.6136C26.0337 10.2129 25.8557 9.74553 25.7444 9.41166C25.5441 8.922 25.0989 8.27653 25.0989 8.27653C25.0989 8.27653 25.0544 8.63265 24.9431 8.63265C24.8318 8.63265 24.5425 8.23202 24.4312 8.23202C24.3422 8.23202 24.4089 8.41008 24.5202 8.87748C24.6315 9.34489 24.8763 9.70101 24.8541 9.41166C24.8318 9.12232 24.7651 8.922 24.8763 9.12232C24.9876 9.32263 25.1212 9.58972 25.1212 9.67875C25.1212 9.76779 25.1212 10.0794 25.188 10.1907C25.2325 10.302 25.4328 10.9919 25.3883 11.0365C25.3438 11.081 25.277 10.9919 25.2102 10.8361C25.1434 10.6803 25.0767 10.5468 25.0544 10.5468C25.0099 10.5468 24.9209 10.5468 25.0099 10.8584C25.0989 11.17 25.188 11.4594 25.3215 11.5929C25.455 11.7264 25.4996 11.7042 25.455 11.771C25.4105 11.8155 25.4105 11.8155 25.3883 11.771C25.3438 11.7264 25.277 11.7264 25.277 12.0158C25.277 12.3051 25.3438 12.9951 25.4328 12.9951C25.4996 12.9951 25.5663 12.7948 25.6776 12.7948C25.7889 12.7948 25.7221 12.8171 25.6554 13.0842C25.5886 13.3512 25.4996 13.3958 25.4328 13.5738C25.366 13.7519 25.2325 13.8409 25.2325 14.197C25.2325 14.5309 25.3215 14.798 25.3215 14.798C25.3215 14.798 25.2102 14.5977 25.1657 14.4641C25.1212 14.3306 25.0544 14.3083 25.0544 14.2638C25.0544 14.1525 25.0099 14.197 25.0099 14.3306C25.0099 14.5532 24.9876 14.5532 24.9876 14.5977C24.9876 14.6422 25.0544 14.5977 25.0544 14.6867C25.0544 14.7757 25.0989 14.7535 25.0989 14.8425C25.0989 14.9315 25.0989 15.0428 25.0989 15.0873C25.0989 15.1318 24.9876 14.9538 24.9876 14.8425C24.9876 14.7312 25.0099 14.5977 24.9431 14.6644C24.8763 14.7312 24.8541 14.8202 24.8541 14.8202C24.8541 14.8202 24.8541 15.1541 24.8541 15.3989C24.8541 15.6438 24.7873 16.0221 24.6315 16.2447C24.4757 16.4673 24.3644 16.5786 24.2977 16.6899C24.2309 16.7789 23.986 17.0683 23.9638 17.2908C23.9415 17.6024 23.9638 17.8695 23.9638 17.8695L23.6522 17.4021C23.6522 17.4021 23.4074 17.7137 23.2961 17.914C23.1625 18.1144 23.0957 18.2702 23.0957 18.3147C23.0957 18.3592 23.0957 18.3592 23.1625 18.3592C23.2293 18.3592 23.4074 18.2702 23.4074 18.3592C23.4074 18.4482 23.0735 19.0937 23.0735 19.0047C23.0735 18.9601 23.2516 18.7598 23.1625 18.7598C23.0735 18.7598 23.0067 18.8043 23.0512 18.7153C23.0957 18.6485 23.2515 18.426 23.2515 18.426C23.2515 18.426 23.0512 18.4705 22.8954 18.6485C22.7174 18.8266 22.6283 18.9601 22.5393 19.0492C22.4503 19.1382 22.428 19.1605 22.339 19.2495C22.2277 19.3385 22.0274 19.5166 21.8938 19.6279C21.7603 19.7392 21.1148 20.2066 20.781 20.4737C20.4248 20.7407 19.6681 21.2749 18.8891 21.453C18.0878 21.631 17.7317 21.631 17.4646 21.631C17.1975 21.631 16.463 21.6088 14.994 21.0969C14.2595 20.852 14.0814 20.7853 14.0814 20.763C14.0814 20.7407 14.126 20.763 14.126 20.7407C14.126 20.7185 13.9924 20.6295 13.7476 20.4514C13.525 20.2733 12.9018 19.7837 12.7237 19.6501C12.5457 19.5166 12.1005 19.1605 11.9892 19.0492C11.8557 18.9379 11.3215 18.426 11.3215 18.426L11.4328 18.7821C11.4328 18.7821 11.3883 18.7598 11.2993 18.5818C11.2102 18.426 10.9877 18.0253 10.8764 17.8027C10.7651 17.6024 10.498 17.1573 10.498 16.6454C10.498 15.3989 10.676 14.4419 10.676 14.019C10.676 13.8854 10.7206 13.8409 10.8319 13.7296C10.9431 13.6183 11.0099 13.4848 11.0767 13.1954C11.1212 12.9061 11.2102 12.3497 11.3883 12.1493C11.6109 11.8822 11.9225 11.7487 11.967 11.6374C12.0115 11.5484 12.3454 10.8807 12.4789 10.7471C12.5902 10.6358 12.746 10.4578 12.8573 10.3687C12.9686 10.2797 13.0799 10.2352 13.2357 10.1239C13.3915 10.0126 13.7253 9.85681 13.9479 9.76778C14.1705 9.67875 15.0608 9.58972 15.2834 9.58972C15.5282 9.58972 16.2182 9.58972 16.4407 9.58972C16.6633 9.58972 17.1752 9.67875 17.5536 9.90133C17.932 10.1239 18.1768 10.3687 18.3326 10.5023C18.4884 10.6358 18.711 10.9252 18.8 11.0142C18.8891 11.1255 19.0671 11.3481 19.0671 11.3481C19.0671 11.3481 18.8223 11.1478 18.5997 10.9697C18.3772 10.7916 18.021 10.48 17.6872 10.3242C17.3533 10.1684 16.7746 10.0126 16.3295 10.0126C15.8843 10.0126 15.4392 10.0794 15.0608 10.2575C14.6824 10.4133 14.1705 10.6358 13.6808 10.9029C13.1689 11.17 12.8128 11.3703 12.5234 11.6597C12.2341 11.949 11.7889 12.5722 11.6554 13.0396C11.4996 13.507 11.4551 13.7296 11.4551 13.9077C11.4551 14.0857 11.4551 14.3528 11.4551 14.5086C11.4551 14.6644 11.4773 14.709 11.4773 14.8648C11.4773 15.0206 11.4773 15.1541 11.4773 15.2654C11.4773 15.3767 11.4996 15.3322 11.5218 15.2654C11.5218 15.2209 11.6109 15.2654 11.6109 15.1986C11.6109 15.1541 11.6776 14.976 11.6776 15.1764C11.6776 15.3767 11.7222 16.7121 11.878 17.4911C12.0338 18.2702 12.5234 19.1159 13.3692 19.7614C14.215 20.4069 15.2834 20.8743 15.9733 20.8743C16.8636 20.8743 18.5997 20.1175 18.5997 20.1175C18.5997 20.1175 18.622 20.2066 18.6665 20.2066C18.7333 20.2066 18.9336 20.1398 19.2229 20.0508C19.5123 19.9617 19.6458 19.9395 19.7126 19.8059C19.7794 19.6724 19.7349 19.6724 19.8239 19.5834C19.9129 19.4943 20.3581 19.1159 20.4026 19.1159C20.4471 19.1159 20.4026 19.2272 20.2468 19.3385C20.1132 19.4498 19.9129 19.5611 20.1355 19.5611C20.4694 19.5611 21.0926 18.9379 21.5155 18.5595C21.9384 18.1811 22.1164 18.0253 22.2054 17.9586C22.3167 17.8918 22.339 17.7805 22.3835 17.6915C22.428 17.5802 22.4725 17.4466 22.428 17.4466C22.3835 17.4466 22.25 17.4466 22.2945 17.3353C22.339 17.2241 22.517 16.8012 22.5838 16.8012C22.6506 16.8012 22.7174 16.7789 22.7619 16.7121C22.8064 16.6454 23.0512 16.6676 23.0512 16.5118C23.0512 16.3783 23.2293 16.0221 23.3628 15.7551C23.4741 15.488 23.5186 15.3989 23.5186 15.2877C23.5186 15.1986 23.5186 14.5754 23.5186 14.5754L23.207 15.3099C23.207 15.3099 23.5409 14.2861 23.5409 13.7296C23.5409 13.418 23.4519 12.728 23.4519 12.4164C23.4519 12.1048 23.4741 11.9935 23.4741 11.8155C23.4741 11.6597 23.4741 11.5706 23.4519 11.5706C23.4074 11.5706 23.3851 11.5484 23.3851 11.4594C23.3851 11.3703 23.2961 10.4133 23.2738 10.1907C23.2516 9.9681 23.0957 9.05554 22.8732 8.63265C22.7396 8.36556 22.6061 8.12073 22.2277 7.54203C21.8271 6.96334 21.5822 6.67399 21.1371 6.27335C20.6919 5.87272 20.4694 5.69466 19.7794 5.31628C19.0894 4.9379 18.4884 4.64856 18.1768 4.51501C17.8652 4.38147 17.1085 4.09212 16.6856 4.02534C16.2627 3.95857 15.4837 3.86954 14.9495 3.86954C14.4153 3.86954 13.9702 3.93631 13.7698 4.00309C13.5918 4.06986 13.5473 4.09212 13.5028 4.09212C13.4137 4.09212 13.5028 4.18115 13.436 4.18115C13.347 4.18115 13.2134 4.22566 13.0576 4.27018C12.8795 4.33695 12.7237 4.40372 12.7237 4.40372C12.7237 4.40372 12.6792 4.33695 13.0131 4.22566C13.2802 4.13663 13.436 4.11437 13.436 4.06986C13.436 4.02534 13.3692 4.0476 13.3247 4.0476C13.2802 4.0476 12.8128 4.11437 12.3899 4.15889C11.967 4.2034 11.5663 4.31469 11.5663 4.49275C11.5663 4.64856 11.4996 4.7821 11.0322 4.9379C10.587 5.09371 10.2309 5.13822 10.1641 5.20499C10.0974 5.24951 10.0083 5.42757 10.0083 5.42757C10.0083 5.42757 10.1196 5.42757 10.498 5.29402C10.9877 5.11596 11.0322 5.02693 11.0322 5.09371C11.0322 5.16048 10.4757 5.53886 9.91929 5.53886C9.6522 5.53886 9.47414 5.49434 9.3406 5.49434C9.20705 5.49434 9.07351 5.56111 8.62836 5.98401C8.16095 6.4069 8.0274 6.5627 8.0274 6.5627C8.0274 6.5627 8.07192 6.62947 8.16095 6.62947C8.24998 6.62947 8.47255 6.42916 8.53933 6.34013C8.6061 6.2511 8.73964 6.18432 8.56158 6.38464C8.24998 6.7185 8.29449 6.74076 8.24998 6.74076C8.20546 6.74076 8.09418 6.74076 7.93837 6.74076C7.76031 6.74076 7.09259 6.76302 6.33583 7.56429C5.57908 8.3433 4.91135 9.03329 4.55523 9.58972C4.19911 10.1239 4.17685 10.2129 4.08782 10.302C3.99879 10.391 3.97653 10.4133 3.97653 10.4133L4.3104 10.4355C4.3104 10.4355 4.08782 10.9697 3.90976 11.3926C3.7317 11.8155 3.59816 11.86 3.44235 12.1271C3.28655 12.3942 3.15301 12.728 3.10849 13.3067C3.06398 13.8854 2.97495 14.6644 2.93043 15.0651C2.88592 15.4657 2.75237 16.1112 2.70786 16.5341C2.66334 16.9347 2.64108 17.1795 2.64108 17.4244C2.64108 17.6692 2.6856 18.0698 2.93043 18.4482C3.17526 18.8043 3.21978 18.8711 3.21978 18.9601C3.21978 19.0269 3.17526 19.1159 3.17526 19.3163C3.17526 19.5166 3.15301 19.7614 3.15301 19.7614C3.15301 19.7614 3.26429 19.8504 3.30881 20.0285C3.35332 20.2066 3.48687 20.3624 3.48687 20.3624H3.28655C3.28655 20.3624 3.8875 22.2097 4.02105 22.2097C4.17685 22.2097 4.24362 21.364 4.39943 21.364C4.48846 21.364 4.57749 21.542 4.66652 21.6978C4.75555 21.8759 4.95587 22.321 5.06715 22.5659C5.31199 23.1668 5.42327 23.3004 5.3565 23.2781C5.28973 23.2781 5.02264 23.1891 4.93361 23.011C4.82232 22.833 4.80006 22.7884 4.80006 22.9888C4.80006 23.1891 4.86684 23.1668 4.86684 23.2558C4.86684 23.3449 4.97812 23.3894 5.06715 23.612C5.17844 23.8568 5.3565 24.0794 5.44553 24.2129C5.53456 24.3465 5.64585 24.4132 5.57908 24.48C5.53456 24.5468 5.49005 24.5468 5.49005 24.5913C5.49005 24.6358 5.40102 24.6358 5.40102 24.6803C5.40102 24.7248 5.57908 25.0364 5.75714 25.17C5.91294 25.2813 6.06874 25.3926 6.06874 25.3926C6.06874 25.3926 5.71262 25.2368 5.66811 25.2368C5.62359 25.2368 5.5123 25.2145 5.57908 25.3481C5.66811 25.4816 6.4026 26.4387 6.60292 26.6835C6.80324 26.9283 7.11485 27.3957 7.11485 27.3957L7.27065 27.1287C7.27065 27.1287 7.27065 27.418 7.27065 27.4848C7.27065 27.5515 7.51548 27.9522 7.56 28.019C7.60451 28.0857 7.62677 28.108 7.64903 28.1748C7.69354 28.2193 7.76031 28.286 7.80483 28.3306C7.84934 28.3973 7.91612 28.4864 7.98289 28.5531C8.04966 28.6199 8.0274 28.6867 8.13869 28.6867C8.24998 28.6867 8.27224 28.6644 8.40578 28.6644C8.53933 28.6644 8.53933 28.6644 8.56158 28.7535C8.58384 28.8425 8.69513 29.0428 8.85093 29.1541C8.87319 29.1763 8.93996 29.2876 9.00673 29.3099C9.05125 29.3544 9.09576 29.3767 9.14028 29.4212C9.16254 29.4657 9.27382 29.5325 9.27382 29.5325C9.27382 29.5325 9.3406 29.577 9.40737 29.5992C9.47414 29.6438 9.56317 29.7105 9.6522 29.7105C9.71898 29.7105 9.87478 29.6883 9.80801 29.7773C9.74123 29.8441 9.51866 30.0889 9.58543 30.1112C9.62994 30.1334 10.3644 30.3337 10.3644 30.4228C10.3644 30.4673 10.3199 30.445 10.3199 30.5341C10.3199 30.6231 10.6093 30.6899 10.7206 30.7344C10.8319 30.8011 11.3883 31.0237 11.3215 30.9347C11.2547 30.8457 11.0989 30.5563 11.0989 30.5341C11.0989 30.5118 11.4328 30.8902 11.5218 30.9347C11.6109 30.9792 11.6776 31.0905 11.7444 31.2018C11.8334 31.3131 11.967 31.5134 12.1896 31.6469C12.4121 31.7805 12.6347 31.9585 13.7921 32.3147C14.0814 32.4037 14.3485 32.3369 14.6156 32.3814C14.8159 32.2924 15.5504 32.4927 15.5504 32.4927Z" fill="#787878"/>
<path fill-rule="evenodd" clip-rule="evenodd" d="M18.3994 16.7122C18.3994 16.6677 18.4217 16.6677 18.4217 16.6009C18.4217 16.5564 18.622 16.3115 18.8 16.089C18.9781 15.8664 19.1339 15.6661 19.1339 15.6661C19.1339 15.6661 19.0449 15.9999 18.9113 16.178C18.7778 16.356 18.5107 16.7122 18.5107 16.7122C18.5329 16.7122 18.6665 16.6677 18.8445 16.5564C19.0449 16.4673 19.0671 16.4451 19.2229 16.2225C19.4455 15.9109 19.5568 15.488 19.5568 15.488C19.5568 15.488 19.4232 16.1557 19.2452 16.4228C19.0671 16.6899 19.0671 16.6231 19.0226 16.7344C18.9558 16.8457 18.9336 16.8902 18.9336 16.8012C18.9558 16.7122 18.9113 16.6231 18.8445 16.6231C18.6665 16.6231 18.4884 16.8235 18.4884 16.7789C18.4884 16.6899 18.3994 16.7789 18.3994 16.7122Z" fill="#787878"/>
<path fill-rule="evenodd" clip-rule="evenodd" d="M25.0989 15.0429C25.0544 15.0429 25.0766 15.0874 25.0766 15.1542C25.0766 15.2209 24.8763 15.9332 24.8541 15.9777C24.8318 16.0222 24.8541 16.089 24.9208 15.9109C24.9876 15.7329 25.1434 15.2655 25.1434 15.1542C25.1434 15.0651 25.1434 15.0429 25.0989 15.0429Z" fill="#787878"/>
<path fill-rule="evenodd" clip-rule="evenodd" d="M25.6776 15.1096C25.6331 15.1096 25.5886 15.2876 25.5441 15.6215C25.4995 15.9553 25.455 16.1557 25.4105 16.3782C25.3437 16.6008 25.2325 16.9792 25.1434 17.1795C25.0544 17.3798 24.6315 18.2701 24.6315 18.2701C24.6315 18.2701 24.8763 17.914 25.0544 17.5134C25.2325 17.1127 25.3437 16.8011 25.3883 16.6008C25.4328 16.4228 25.5441 15.9776 25.5663 15.8218C25.5886 15.666 25.6331 15.3544 25.6553 15.2208C25.6999 15.1318 25.7221 15.1096 25.6776 15.1096Z" fill="#787878"/>
<path fill-rule="evenodd" clip-rule="evenodd" d="M0.882726 11.1033C0.882726 11.1033 1.06079 10.7917 1.1053 10.4133C1.14982 10.0572 1.19433 9.94589 1.19433 9.94589C1.19433 9.94589 0.838211 10.391 0.838211 10.5246C0.838211 10.7249 0.927241 10.6581 0.927241 10.7917C0.927241 11.0365 0.882726 11.1033 0.882726 11.1033Z" fill="#787878"/>
<path fill-rule="evenodd" clip-rule="evenodd" d="M1.43915 8.47678C1.43915 8.52129 1.55044 8.47678 1.61721 8.41001C1.70624 8.34323 1.7285 8.29872 1.70624 8.27646C1.68398 8.2542 1.68398 8.2542 1.63947 8.29872C1.59495 8.34323 1.48366 8.43226 1.46141 8.43226C1.46141 8.45452 1.43915 8.45452 1.43915 8.47678Z" fill="#787878"/>
<path fill-rule="evenodd" clip-rule="evenodd" d="M1.70624 8.25428C1.70624 8.25428 1.79527 8.20976 1.86204 8.16525C1.92881 8.12073 1.95107 8.0317 1.99559 7.92041C2.0401 7.80913 2.15139 7.60881 2.15139 7.54204C2.15139 7.47526 2.06236 7.54204 2.0401 7.56429C2.01784 7.58655 1.95107 7.63107 1.92881 7.67558C1.90656 7.7201 1.79527 7.78687 1.79527 7.7201C1.79527 7.67558 1.75075 7.63107 1.79527 7.80913C1.81753 7.89816 1.77301 7.98719 1.77301 8.07622C1.77301 8.20976 1.70624 8.25428 1.70624 8.25428Z" fill="#787878"/>
<path fill-rule="evenodd" clip-rule="evenodd" d="M10.4312 18.2479L10.3199 18.6263C10.3199 18.6263 10.498 18.8266 10.6538 19.0714C10.8096 19.3163 10.9209 19.5166 10.9654 19.5833C11.0099 19.6501 11.188 19.8059 11.2547 19.8727C11.3215 19.9172 11.3883 19.984 11.3883 19.984C11.3883 19.984 11.2325 19.6501 11.1434 19.5166C11.0767 19.383 10.9654 19.2495 10.8096 19.0047C10.5425 18.604 10.4312 18.2479 10.4312 18.2479Z" fill="#787878"/>
<path fill-rule="evenodd" clip-rule="evenodd" d="M11.0544 18.8266C11.0544 18.8266 11.2992 19.2049 11.4105 19.3385C11.4995 19.472 11.8112 19.9617 12.0115 20.2065C12.1895 20.4514 12.4789 20.7407 12.7015 20.9188C12.9463 21.0968 13.6363 21.5197 13.8588 21.631C14.0814 21.7423 14.393 21.8536 14.7491 21.9871C15.083 22.1207 15.3056 22.1875 15.4391 22.2097C15.5949 22.232 16.0178 22.2765 16.1069 22.2765C16.9972 22.2765 17.9987 21.8313 17.9987 21.8313C17.9987 21.8313 17.3088 21.8536 16.9972 21.8536C16.6856 21.8536 15.8843 21.8091 15.3056 21.5865C14.7269 21.3639 14.6156 21.2972 14.5266 21.2304C14.4153 21.1636 14.0146 20.8965 14.0146 20.8075C14.0146 20.7185 14.0592 20.7185 14.0592 20.7185C14.0592 20.7185 13.9924 20.6962 13.9924 20.8075C13.9924 20.8743 14.0146 20.8965 14.0146 20.8965C14.0146 20.8965 13.9479 20.9188 13.4805 20.6517C12.5457 20.1175 12.0337 19.383 12.0337 19.383C12.0337 19.383 12.1005 19.6278 12.4344 20.0062C12.7682 20.3846 13.0576 20.5849 13.0576 20.5849C13.0576 20.5849 12.6124 20.4069 12.5011 20.2956C12.3676 20.1843 12.0782 19.8504 11.9224 19.6724C11.7444 19.4943 11.6108 19.3385 11.5663 19.2717C11.5218 19.2049 11.4773 19.1604 11.455 19.1159C11.277 18.8711 11.0544 18.8266 11.0544 18.8266Z" fill="#787878"/>
<path fill-rule="evenodd" clip-rule="evenodd" d="M14.1927 1.22096C14.1927 1.22096 14.3708 1.1987 14.6156 1.1987C14.8605 1.1987 15.1721 1.22096 14.994 1.26547C14.8159 1.30999 14.7046 1.3545 14.7046 1.3545C14.7046 1.3545 14.5711 1.39902 14.5711 1.3545C14.5711 1.30999 14.7046 1.39902 14.7046 1.30999C14.7046 1.26547 14.1927 1.22096 14.1927 1.22096Z" fill="#787878"/>
<path fill-rule="evenodd" clip-rule="evenodd" d="M14.0592 0.909332C14.0592 0.93159 14.215 0.909332 14.215 0.93159C14.215 0.953847 14.2595 0.953847 14.3263 0.93159C14.4153 0.909332 14.8159 0.84256 14.6824 0.84256C14.5488 0.84256 14.4153 0.887075 14.304 0.887075C14.1927 0.887075 14.0592 0.887075 14.0592 0.909332Z" fill="#787878"/>
<path fill-rule="evenodd" clip-rule="evenodd" d="M14.8604 0.842546C14.9049 0.864804 15.1943 0.864804 15.1943 0.864804C15.1943 0.842546 15.4391 0.842546 15.3056 0.820289C15.172 0.798031 15.2166 0.842546 15.0608 0.842546C14.9272 0.820289 14.8159 0.820289 14.8604 0.842546Z" fill="#787878"/>
</svg>
