<svg width="141" height="49" viewBox="0 0 141 49" fill="none" xmlns="http://www.w3.org/2000/svg">
<path d="M34.5205 0.937988C24.6534 0.937988 22.8024 14.9919 28.3532 14.9919C33.9033 14.9919 44.3881 0.937988 34.5205 0.937988Z" fill="#787878"/>
<path d="M18.1363 13.2505C21.0918 13.431 24.3345 1.97154 18.7796 2.69227C13.2268 3.41299 15.1796 13.07 18.1363 13.2505Z" fill="#787878"/>
<path d="M4.59133 20.3711C6.69334 19.4458 4.86205 10.3956 1.2877 12.8638C-2.28505 15.3324 2.48931 21.2959 4.59133 20.3711Z" fill="#787878"/>
<path d="M10.514 15.634C13.0163 15.1238 13.1534 4.85961 8.6911 6.70093C4.22798 8.54265 8.01369 16.145 10.514 15.634Z" fill="#787878"/>
<path d="M23.5805 38.6039C24.0245 41.9945 21.0931 43.669 18.2222 41.4832C9.08297 34.525 33.3542 31.0537 31.7544 21.5475C30.4264 13.6568 6.21571 16.0861 3.45874 28.4327C1.59256 36.7834 11.1405 48.3688 21.1031 48.3688C26.0042 48.3688 31.6573 43.9433 32.7149 38.3372C33.5227 34.0621 23.2099 35.7751 23.5805 38.6039Z" fill="#787878"/>
<path d="M84.9746 17.5885C82.4839 17.6555 80.5171 18.5493 79.0706 20.2634C77.5727 22.0473 76.8193 24.512 76.8193 27.6553C76.8193 30.79 77.5727 33.248 79.0706 35.0318C80.5758 36.8156 82.6425 37.7067 85.2785 37.7067C87.9219 37.7067 89.9937 36.8156 91.4916 35.0318C92.9895 33.248 93.7378 30.79 93.7378 27.6553C93.7378 24.512 92.9895 22.0473 91.4916 20.2634C89.9937 18.4796 87.9219 17.5886 85.2785 17.5885C85.1756 17.5885 85.0758 17.5858 84.9746 17.5885ZM85.16 21.2099C85.1999 21.2088 85.2381 21.2099 85.2785 21.2099C86.5782 21.2099 87.5852 21.7715 88.2975 22.8971C89.0097 24.0229 89.3691 25.6117 89.3691 27.6553C89.3691 29.6903 89.0097 31.2673 88.2975 32.3929C87.5852 33.5187 86.5781 34.0853 85.2785 34.0853C83.9862 34.0853 82.9873 33.5187 82.275 32.3929C81.5628 31.2673 81.2035 29.6903 81.2035 27.6553C81.2035 25.6118 81.5628 24.0229 82.275 22.8971C82.965 21.8066 83.9256 21.244 85.16 21.2099Z" fill="#787878"/>
<path d="M56.8524 35.8883C54.6625 37.7278 51.4045 37.7067 50.0472 37.7067C47.3134 37.7067 45.1476 36.8061 43.5499 35.005C41.9521 33.1953 41.1532 30.7448 41.1532 27.6535C41.1532 24.5276 41.9667 22.0684 43.5938 20.276C45.2209 18.4836 47.449 17.5874 50.2781 17.5873C51.3701 17.5874 52.4145 17.7086 53.4113 17.951C54.4154 18.1935 55.3609 18.5528 56.2477 19.0291L55.1088 22.397C54.6102 22.124 54.0394 21.8549 53.5102 21.6657C52.6087 21.3627 51.7036 21.2112 50.7948 21.2111C49.109 21.2112 47.8081 21.7697 46.892 22.8867C45.9831 23.9951 45.5287 25.584 45.5287 27.6535C45.5287 29.7057 45.9685 31.2903 46.848 32.4073C47.7275 33.5243 49.0492 34.0828 50.5969 34.0828C52.1692 34.0828 53.143 33.6864 53.6624 33.2687V29.9135H50.2561V26.5624H56.8524" fill="#787878"/>
<path d="M59.7484 17.8921H62.4047L70.7982 29.5255V17.8921H74.3806V37.2494H71.7243L63.3308 25.6159V37.2494H59.7484V17.8921Z" fill="#787878"/>
<path d="M96.4962 17.8921H101.883L105.621 30.0354L109.381 17.8921H113.934L115.991 37.3435H111.989L110.755 25.1803L106.973 37.4018H104.291L100.509 24.7676L99.2748 37.3435H95.262L97.319 17.8921" fill="#787878"/>
<path d="M118.887 17.8921H130.231V21.665H123.09V25.6801H128.579V29.0423H123.09V33.4764H130.471V37.2494H118.887V17.8921Z" fill="#787878"/>
<path d="M136.896 14.1738H135.746V17.4349H135.277V14.1738H134.129V13.7768H136.896V14.1738Z" fill="#787878"/>
<path d="M138.036 13.7768L139.206 16.7616L140.376 13.7768H140.988V17.4349H140.516V16.0104L140.56 14.4728L139.385 17.4349H139.024L137.852 14.4803L137.899 16.0104V17.4349H137.427V13.7768H138.036Z" fill="#787878"/>
</svg>
