<svg width="200" height="47" viewBox="0 0 200 47" fill="none" xmlns="http://www.w3.org/2000/svg">
<path fill-rule="evenodd" clip-rule="evenodd" d="M61.3618 30.5039C60.4364 31.0227 59.4794 31.389 58.4864 31.6041C57.4933 31.8192 56.4845 31.9268 55.4543 31.9268C54.2471 31.9268 53.1391 31.7217 52.1325 31.3151C51.1248 30.9073 50.2637 30.3381 49.5479 29.6021C48.8321 28.8694 48.2719 27.9933 47.8695 26.9782C47.4671 25.9632 47.2654 24.8552 47.2654 23.6531C47.2654 22.4509 47.4671 21.3474 47.8695 20.3391C48.2719 19.3308 48.8321 18.4603 49.5479 17.7265C50.2637 16.9927 51.1248 16.4179 52.1325 16.0034C53.1391 15.5889 54.2471 15.3805 55.4543 15.3805C57.8123 15.3805 59.7139 16.1065 61.16 17.5596L60.0858 18.672C59.848 18.3897 59.5527 18.1264 59.2021 17.8811C58.8516 17.638 58.4717 17.4307 58.0614 17.2593C57.6511 17.089 57.2228 16.9546 56.7742 16.8593C56.3278 16.763 55.8871 16.7137 55.4543 16.7137C54.4252 16.7137 53.4964 16.8918 52.669 17.2481C51.8406 17.6044 51.1361 18.0928 50.5545 18.7169C49.9728 19.3386 49.5253 20.0736 49.2109 20.9183C48.8975 21.7642 48.742 22.6739 48.742 23.6531C48.742 24.6322 48.8975 25.5453 49.2109 26.3878C49.5253 27.2337 49.9728 27.9686 50.5545 28.5904C51.1361 29.2133 51.8406 29.7018 52.669 30.0592C53.4964 30.4154 54.4252 30.5924 55.4543 30.5924C56.3053 30.5924 57.1022 30.5263 57.8484 30.3919C58.5946 30.2597 59.2732 30.0132 59.8841 29.6592V24.3645H56.081V23.0313H61.3618V30.5039Z" fill="#787878"/>
<path fill-rule="evenodd" clip-rule="evenodd" d="M71.6544 22.7193H74.7868C75.5623 22.7193 76.1924 22.6241 76.6782 22.4303C77.1617 22.2376 77.5382 22.0001 77.8065 21.7177C78.0759 21.4354 78.2585 21.1318 78.3554 20.8058C78.4524 20.4798 78.5008 20.184 78.5008 19.9173C78.5008 19.6496 78.4524 19.3527 78.3554 19.0278C78.2585 18.7018 78.0759 18.397 77.8065 18.1147C77.5382 17.8346 77.1617 17.5971 76.6782 17.4033C76.1924 17.2117 75.5623 17.1143 74.7868 17.1143H71.6544V22.7193ZM70.1778 15.7799H74.3393C74.5478 15.7799 74.8319 15.7878 75.1892 15.8023C75.5476 15.818 75.9354 15.8617 76.3536 15.9357C76.7706 16.0096 77.1956 16.1295 77.6284 16.2919C78.0612 16.4555 78.449 16.693 78.7928 17.0033C79.1343 17.3148 79.4183 17.708 79.6426 18.1819C79.8658 18.6558 79.9774 19.2351 79.9774 19.9173C79.9774 20.6725 79.8478 21.2965 79.5863 21.7861C79.3248 22.2745 78.9979 22.6711 78.6023 22.9747C78.2055 23.2784 77.7704 23.5047 77.2925 23.6526C76.8146 23.8016 76.3603 23.9046 75.9286 23.964L80.5376 31.5263H78.8593L74.4069 24.0525H71.6544V31.5263H70.1778V15.7799Z" fill="#787878"/>
<path fill-rule="evenodd" clip-rule="evenodd" d="M95.2612 17.382L91.5697 26.012H98.8411L95.2612 17.382ZM94.5669 15.7799H96.0886L102.757 31.5263H101.101L99.3777 27.3463H90.987L89.197 31.5263H87.6528L94.5669 15.7799Z" fill="#787878"/>
<path fill-rule="evenodd" clip-rule="evenodd" d="M112.333 22.7193H115.689C116.107 22.7193 116.517 22.6711 116.92 22.5748C117.322 22.4784 117.682 22.3227 117.994 22.1076C118.307 21.8925 118.561 21.6079 118.755 21.2517C118.949 20.8954 119.046 20.4585 119.046 19.9398C119.046 19.4356 118.945 19.0054 118.744 18.6491C118.543 18.294 118.282 18.0016 117.961 17.7708C117.64 17.5411 117.27 17.3742 116.852 17.27C116.435 17.1658 116.017 17.1143 115.6 17.1143H112.333V22.7193ZM110.856 15.7799H115.421C115.973 15.7799 116.55 15.8438 117.155 15.9704C117.76 16.0948 118.311 16.3143 118.811 16.6258C119.31 16.9361 119.721 17.3641 120.041 17.9052C120.362 18.4463 120.523 19.1253 120.523 19.9398C120.523 20.65 120.392 21.2662 120.131 21.7861C119.871 22.3048 119.519 22.7305 119.08 23.0633C118.639 23.3982 118.133 23.6458 117.558 23.8094C116.983 23.9719 116.383 24.0525 115.757 24.0525H112.333V31.5263H110.856V15.7799Z" fill="#787878"/>
<path fill-rule="evenodd" clip-rule="evenodd" d="M127.727 15.7802H129.204V22.7196H138.065V15.7802H139.541V31.5266H138.065V24.0528H129.204V31.5266H127.727V15.7802Z" fill="#787878"/>
<path fill-rule="evenodd" clip-rule="evenodd" d="M148.805 15.7802H158.495V17.1134H150.281V22.7196H157.978V24.0528H150.281V30.1923H158.852V31.5266H148.805V15.7802Z" fill="#787878"/>
<path fill-rule="evenodd" clip-rule="evenodd" d="M167.443 15.7802H169.344L178.99 29.5705H179.034V15.7802H180.51V31.5266H178.609L168.966 17.7375H168.919V31.5266H167.443V15.7802Z" fill="#787878"/>
<path fill-rule="evenodd" clip-rule="evenodd" d="M189.775 15.7802H199.464V17.1134H191.252V22.7196H198.949V24.0528H191.252V30.1923H199.821V31.5266H189.775V15.7802Z" fill="#787878"/>
<mask id="mask0" mask-type="alpha" maskUnits="userSpaceOnUse" x="0" y="0" width="31" height="47">
<path d="M0.688599 0.932526H30.7047V46.3742H0.688599V0.932526Z" fill="#787878"/>
</mask>
<g mask="url(#mask0)">
<path fill-rule="evenodd" clip-rule="evenodd" d="M29.2193 37.5887C29.0435 37.75 28.933 37.9797 28.933 38.2362C28.933 38.4928 29.0435 38.7225 29.2193 38.8838L28.6727 39.8249C28.5904 39.8002 28.5025 39.7857 28.4112 39.7857C27.9896 39.7857 27.6368 40.0792 27.5477 40.4724H26.4521C26.3766 40.0624 26.0159 39.7509 25.5808 39.7509C25.4906 39.7509 25.4039 39.7644 25.3216 39.7901L24.7873 38.8704C24.9552 38.7101 25.0601 38.485 25.0601 38.2362C25.0601 38.2306 25.0601 38.2239 25.0601 38.2183C25.0601 38.2127 25.0601 38.2071 25.0601 38.2015C25.0601 37.9528 24.9564 37.7276 24.7884 37.5674L25.2979 36.6913C25.3869 36.7215 25.4828 36.7383 25.5808 36.7383C26.0035 36.7383 26.3552 36.4448 26.4454 36.0527H27.5477C27.6368 36.4448 27.9896 36.7383 28.4112 36.7383C28.5115 36.7383 28.6084 36.7215 28.6986 36.6913L29.2193 37.5887ZM2.17843 32.6514L2.72623 31.708C2.80739 31.7327 2.89418 31.7472 2.98436 31.7472C3.40592 31.7472 3.75872 31.4537 3.84777 31.0605H4.95015C5.03919 31.4537 5.392 31.7472 5.81356 31.7472C5.90486 31.7472 5.99278 31.7327 6.07507 31.708L6.62175 32.6491C6.50114 32.7589 6.41209 32.9023 6.36813 33.0636C6.34108 33.1477 6.32643 33.2373 6.32643 33.3303C6.32643 33.5835 6.43464 33.8109 6.60597 33.9711L6.07507 34.8853C5.99278 34.8607 5.90486 34.8461 5.81356 34.8461C5.40665 34.8461 5.06286 35.1217 4.96029 35.4948C4.95578 35.5071 4.95353 35.5194 4.95015 35.5329H3.84777C3.75872 35.1396 3.40592 34.8461 2.98436 34.8461C2.89418 34.8461 2.80739 34.8595 2.72623 34.8842L2.17843 33.9431C2.35314 33.7818 2.4636 33.5521 2.4636 33.2967C2.4636 33.0412 2.35314 32.8116 2.17843 32.6514ZM2.98436 39.7173C2.89418 39.7173 2.80739 39.7319 2.72623 39.7565L2.17843 38.8143C2.35314 38.653 2.4636 38.4233 2.4636 38.1679C2.4636 37.9125 2.35314 37.6828 2.17843 37.5226L2.72623 36.5804C2.80739 36.605 2.89418 36.6185 2.98436 36.6185C3.40592 36.6185 3.75872 36.3249 3.84777 35.9317H4.93549C5.01552 36.3362 5.37509 36.642 5.80567 36.642C5.90261 36.642 5.99729 36.6252 6.08521 36.5961L6.62175 37.5203C6.50114 37.6313 6.41209 37.7735 6.36813 37.9349C6.34108 38.0189 6.32643 38.1085 6.32643 38.2015C6.32643 38.4547 6.43464 38.6821 6.60597 38.8435L6.07507 39.7577C5.99278 39.7319 5.90486 39.7173 5.81356 39.7173C5.40553 39.7173 5.06286 39.9929 4.96029 40.366C4.95578 40.3783 4.95353 40.3907 4.95015 40.4041H3.84777C3.75872 40.012 3.40592 39.7173 2.98436 39.7173ZM7.21239 42.1821C7.12221 42.1821 7.03542 42.1955 6.95426 42.2202L6.40646 41.278C6.52594 41.1682 6.61498 41.0259 6.65894 40.8646C6.686 40.7817 6.70065 40.692 6.70065 40.599C6.70065 40.347 6.59357 40.1195 6.42224 39.9593L6.95426 39.044C7.03542 39.0687 7.12221 39.0821 7.21239 39.0821C7.62042 39.0821 7.96421 38.8076 8.06678 38.4345C8.07017 38.4222 8.07355 38.4088 8.07693 38.3965H9.17818C9.26835 38.7886 9.62003 39.0821 10.0427 39.0821C10.1329 39.0821 10.2208 39.0687 10.3042 39.0429L10.8509 39.984C10.6739 40.1453 10.5635 40.3761 10.5635 40.6315C10.5635 40.8881 10.6739 41.1189 10.8509 41.2791L10.3054 42.219C10.2242 42.1955 10.1397 42.1821 10.0517 42.1821H10.0472H10.0427C9.62003 42.1821 9.26722 42.4756 9.17818 42.8677H8.07693C7.98675 42.4756 7.63508 42.1821 7.21239 42.1821ZM14.2888 44.6132C13.8661 44.6132 13.5144 44.9067 13.4242 45.2989H12.323C12.2339 44.9067 11.8811 44.6132 11.4585 44.6132C11.3694 44.6132 11.2815 44.6267 11.2003 44.6513L10.6525 43.708C10.8284 43.5478 10.9377 43.3181 10.9377 43.0627C10.9377 42.8072 10.8284 42.5787 10.6525 42.4173L11.1992 41.4763C11.2781 41.4998 11.3626 41.5132 11.4494 41.5132C11.4517 41.5132 11.4528 41.5121 11.4539 41.5121C11.4562 41.5121 11.4573 41.5132 11.4585 41.5132C11.8811 41.5132 12.2339 41.2197 12.323 40.8276H13.4242C13.5144 41.2197 13.8661 41.5132 14.2888 41.5132C14.379 41.5132 14.468 41.4998 14.5503 41.474L15.097 42.4151C14.9211 42.5764 14.8095 42.8061 14.8095 43.0627C14.8095 43.3192 14.9211 43.55 15.097 43.7102L14.5503 44.6524C14.468 44.6267 14.379 44.6132 14.2888 44.6132ZM19.9371 44.6132C19.5144 44.6132 19.1627 44.9067 19.0736 45.2989H17.9713C17.8811 44.9067 17.5283 44.6132 17.1067 44.6132C17.0165 44.6132 16.9298 44.6267 16.8486 44.6513L16.3008 43.708C16.4755 43.5478 16.586 43.3181 16.586 43.0627C16.586 42.8072 16.4755 42.5787 16.3008 42.4173L16.8486 41.4751C16.9298 41.4998 17.0165 41.5132 17.1067 41.5132C17.5283 41.5132 17.8811 41.2197 17.9713 40.8276H19.0736C19.1627 41.2197 19.5144 41.5132 19.9371 41.5132C20.0272 41.5132 20.1152 41.4998 20.1986 41.474L20.7441 42.4151C20.5694 42.5764 20.4578 42.8061 20.4578 43.0627C20.4578 43.3192 20.5694 43.55 20.7441 43.7102L20.1986 44.6524C20.1152 44.6267 20.0272 44.6132 19.9371 44.6132ZM24.1741 42.1821C23.7514 42.1821 23.3997 42.4756 23.3096 42.8677H22.2083C22.1193 42.4756 21.7665 42.1821 21.3438 42.1821C21.2547 42.1821 21.1668 42.1955 21.0856 42.2202L20.5378 41.278C20.7137 41.1166 20.823 40.887 20.823 40.6315C20.823 40.3761 20.7126 40.1475 20.5378 39.9862L21.0856 39.044C21.1668 39.0687 21.2547 39.0821 21.3438 39.0821C21.7665 39.0821 22.1193 38.7886 22.2083 38.3965H23.3028C23.3783 38.8065 23.7401 39.1168 24.1741 39.1168C24.2654 39.1168 24.3533 39.1034 24.4367 39.0776L24.9699 39.9952C24.8008 40.1565 24.6949 40.3817 24.6949 40.6315C24.6949 40.6382 24.696 40.6438 24.696 40.6495C24.696 40.6551 24.6949 40.6607 24.6949 40.6674C24.6949 40.9172 24.8008 41.1424 24.9688 41.3026L24.4356 42.2213C24.3533 42.1955 24.2643 42.1821 24.1741 42.1821ZM28.4112 10.6558C27.9896 10.6558 27.6368 10.9493 27.5477 11.3414H26.4454C26.3563 10.9493 26.0035 10.6558 25.5808 10.6558C25.4918 10.6558 25.405 10.6692 25.3227 10.6938L24.776 9.75165C24.9496 9.59032 25.0601 9.36177 25.0601 9.10633C25.0601 8.85089 24.9496 8.62122 24.776 8.45989L25.3227 7.51769C25.405 7.54234 25.4918 7.55578 25.5808 7.55578C26.0035 7.55578 26.3563 7.26225 26.4454 6.87013H27.5477C27.6368 7.26225 27.9896 7.55578 28.4112 7.55578C28.5025 7.55578 28.5904 7.54234 28.6727 7.51657L29.2193 8.45877C29.0435 8.61898 28.933 8.84977 28.933 9.10633C28.933 9.36177 29.0435 9.59256 29.2193 9.75277L28.6727 10.695C28.5904 10.6692 28.5025 10.6558 28.4112 10.6558ZM24.1719 22.8103C23.7503 22.8103 23.3975 23.1027 23.3084 23.496H22.2061C22.117 23.1027 21.7642 22.8103 21.3426 22.8103H21.3415C21.2513 22.8103 21.1657 22.8226 21.0834 22.8473L20.5367 21.9051C20.7114 21.7449 20.8219 21.5152 20.8219 21.2598C20.8219 21.0043 20.7114 20.7747 20.5367 20.6144L21.0845 19.6711C21.1657 19.6969 21.2525 19.7092 21.3426 19.7092C21.7642 19.7092 22.117 19.4168 22.2061 19.0236H23.3084C23.3975 19.4168 23.7503 19.7092 24.1719 19.7092H24.173H24.1741C24.2643 19.7092 24.3522 19.6958 24.4334 19.6711L24.98 20.6122C24.8042 20.7735 24.6937 21.0032 24.6937 21.2598C24.6937 21.5163 24.8042 21.746 24.98 21.9073L24.4334 22.8484C24.3511 22.8238 24.2632 22.8103 24.1719 22.8103ZM24.1741 5.12465C24.2643 5.12465 24.3533 5.1112 24.4356 5.08544L24.9823 6.02764C24.8064 6.18785 24.6949 6.41864 24.6949 6.6752C24.6949 6.93175 24.8053 7.16142 24.9823 7.32275L24.4356 8.26384C24.3533 8.23807 24.2643 8.22462 24.1741 8.22462C23.7514 8.22462 23.3997 8.51815 23.3096 8.91027H22.2083C22.1193 8.51815 21.7665 8.22462 21.3438 8.22462C21.2547 8.22462 21.1668 8.23807 21.0856 8.26271L20.5378 7.32051C20.7137 7.15918 20.823 6.93063 20.823 6.6752C20.823 6.41976 20.7126 6.19009 20.5378 6.02988L21.0856 5.08656C21.1668 5.1112 21.2536 5.12465 21.3426 5.12465H21.3438C21.7665 5.12465 22.1193 4.83112 22.2083 4.439H23.3096C23.3997 4.83112 23.7514 5.12465 24.1741 5.12465ZM24.9834 12.185L24.4367 13.1261C24.3533 13.1003 24.2654 13.0858 24.1741 13.0858C23.6849 13.0858 23.2881 13.4801 23.2881 13.9675C23.2881 14.4537 23.6849 14.8481 24.1741 14.8481C24.2654 14.8481 24.3533 14.8346 24.4367 14.8089L24.9834 15.7499C24.8064 15.9101 24.6949 16.1409 24.6949 16.3975C24.6949 16.6552 24.8064 16.8848 24.9834 17.0473L24.4367 17.9872C24.3533 17.9615 24.2654 17.948 24.1741 17.948H24.173H24.1719C23.7503 17.948 23.3975 18.2416 23.3084 18.6348H22.2061C22.117 18.2416 21.7642 17.948 21.3426 17.948C20.8534 17.948 20.4567 18.3424 20.4567 18.8286C20.4567 19.0863 20.5671 19.316 20.7441 19.4773L20.1974 20.4184C20.114 20.3926 20.0261 20.3792 19.9348 20.3792H19.9337C19.5121 20.3792 19.1593 20.6727 19.0703 21.0648H17.9679C17.8777 20.6727 17.526 20.3792 17.1033 20.3792C16.6141 20.3792 16.2174 20.7735 16.2174 21.2598C16.2174 21.5163 16.329 21.7471 16.5059 21.9084L15.9593 22.8484C15.877 22.8238 15.7891 22.8103 15.6989 22.8103H15.6978H15.6966C15.6065 22.8103 15.5208 22.8226 15.4385 22.8473L14.893 21.9062C15.0677 21.7449 15.1781 21.5152 15.1781 21.2598C15.1781 20.7735 14.7814 20.3792 14.291 20.3792C13.8695 20.3792 13.5167 20.6727 13.4276 21.0648H12.3252C12.2362 20.6727 11.8845 20.3792 11.4618 20.3792H11.4607C11.3705 20.3792 11.2826 20.3926 11.2015 20.4173L10.6536 19.4762C10.8295 19.3149 10.9388 19.0852 10.9388 18.8286C10.9388 18.3424 10.5421 17.948 10.0529 17.948C9.6313 17.948 9.2785 18.2416 9.18945 18.6348H8.08707C7.99803 18.2416 7.64522 17.948 7.22253 17.948H7.2214H7.22028C7.12898 17.948 7.04218 17.9615 6.9599 17.9861L6.41322 17.045C6.58793 16.8837 6.69952 16.654 6.69952 16.3975C6.69952 16.1421 6.58793 15.9124 6.41322 15.7522L6.9599 14.81C7.04218 14.8346 7.12898 14.8481 7.22028 14.8481C7.70947 14.8481 8.10624 14.4537 8.10624 13.9675C8.10624 13.4801 7.70947 13.0858 7.22028 13.0858C7.12898 13.0858 7.04218 13.1003 6.9599 13.125L6.41322 12.1828C6.58793 12.0226 6.69952 11.7929 6.69952 11.5363C6.69952 11.2809 6.58793 11.0512 6.41322 10.8899L6.9599 9.9477C7.04218 9.97347 7.12898 9.98692 7.22028 9.98692H7.2214H7.22253C7.64522 9.98692 7.99803 9.69339 8.08707 9.30015H9.18945C9.2785 9.69339 9.6313 9.98692 10.0529 9.98692C10.5421 9.98692 10.9388 9.59256 10.9388 9.10633C10.9388 8.84977 10.8295 8.6201 10.6536 8.45877L11.2003 7.51769C11.2826 7.54234 11.3694 7.55578 11.4585 7.55578H11.4596H11.4607C11.8823 7.55578 12.2351 7.26225 12.3241 6.87013H13.4242C13.5144 7.26225 13.8661 7.55578 14.2888 7.55578C14.778 7.55578 15.1747 7.16142 15.1747 6.6752C15.1747 6.41864 15.0643 6.18897 14.8896 6.02876L15.4362 5.08656C15.5185 5.1112 15.6053 5.12465 15.6955 5.12465H15.6966H15.6978C15.7891 5.12465 15.877 5.1112 15.9604 5.08544L16.5071 6.02652C16.3301 6.18785 16.2185 6.41752 16.2185 6.6752C16.2185 7.16142 16.6153 7.55578 17.1056 7.55578C17.5272 7.55578 17.88 7.26225 17.969 6.87013H19.0714C19.1604 7.26225 19.5132 7.55578 19.9348 7.55578H19.9359H19.9371C20.0284 7.55578 20.1163 7.54234 20.1997 7.51657L20.7452 8.45765C20.5694 8.61898 20.4578 8.84865 20.4578 9.10633C20.4578 9.59256 20.8546 9.98692 21.3438 9.98692C21.7665 9.98692 22.1193 9.69339 22.2083 9.30015H23.3096C23.3997 9.69339 23.7514 9.98692 24.1741 9.98692C24.2654 9.98692 24.3533 9.97347 24.4367 9.9477L24.9834 10.8877C24.8064 11.049 24.6949 11.2798 24.6949 11.5363C24.6949 11.794 24.8064 12.0237 24.9834 12.185ZM14.291 25.2403C13.8695 25.2403 13.5167 25.5338 13.4276 25.926H12.3252C12.2362 25.5338 11.8845 25.2403 11.4618 25.2403C11.3717 25.2403 11.2849 25.2538 11.2037 25.2784L10.6559 24.3362C10.8306 24.1749 10.9411 23.9463 10.9411 23.6909C10.9411 23.4355 10.8306 23.2058 10.6559 23.0456L11.2037 22.1023C11.2849 22.1269 11.3717 22.1403 11.4607 22.1403H11.4618C11.8845 22.1403 12.2362 21.8479 12.3252 21.4547H13.4276C13.5167 21.8479 13.8695 22.1403 14.291 22.1403C14.3823 22.1403 14.4703 22.1269 14.5525 22.1023L15.0992 23.0411C14.9211 23.2024 14.8095 23.4332 14.8095 23.6909C14.8095 23.9486 14.9211 24.1782 15.0992 24.3396L14.5525 25.2795C14.4703 25.2538 14.3823 25.2403 14.291 25.2403ZM17.1033 25.2403C17.0143 25.2403 16.9275 25.2538 16.8452 25.2784L16.2985 24.3373C16.4744 24.1771 16.586 23.9474 16.586 23.6909C16.586 23.4343 16.4744 23.2047 16.2985 23.0433L16.8452 22.1023C16.9275 22.1269 17.0143 22.1403 17.1033 22.1403C17.526 22.1403 17.8777 21.8479 17.9679 21.4547H19.0703C19.1593 21.8479 19.5121 22.1403 19.9337 22.1403H19.9348C20.0261 22.1403 20.1129 22.1269 20.1952 22.1023L20.7419 23.0433C20.566 23.2047 20.4556 23.4343 20.4556 23.6909C20.4556 23.9474 20.566 24.1771 20.7419 24.3384L20.1952 25.2795C20.1129 25.2538 20.0261 25.2403 19.9348 25.2403H19.9337C19.5121 25.2403 19.1593 25.5338 19.0703 25.926H17.9679C17.8777 25.5338 17.526 25.2403 17.1033 25.2403ZM25.5808 2.69463C26.0035 2.69463 26.3563 2.40111 26.4454 2.00787H27.5477C27.6368 2.40111 27.9896 2.69463 28.4112 2.69463C28.5025 2.69463 28.5904 2.68007 28.6727 2.65542L29.2193 3.59651C29.0435 3.75784 28.933 3.9875 28.933 4.24406C28.933 4.50062 29.0435 4.73029 29.2193 4.89162L28.6727 5.8327C28.5904 5.80805 28.5025 5.79461 28.4112 5.79461C27.9896 5.79461 27.6368 6.08702 27.5477 6.48026H26.4454C26.3552 6.08702 26.0035 5.79461 25.5808 5.79461C25.4918 5.79461 25.405 5.80693 25.3227 5.8327L24.776 4.88938C24.9496 4.72917 25.0601 4.4995 25.0601 4.24406C25.0601 3.98863 24.9496 3.75896 24.776 3.59875L25.3227 2.65542C25.405 2.68007 25.4918 2.69463 25.5808 2.69463ZM17.1056 2.69463C17.5272 2.69463 17.88 2.40111 17.969 2.00787H19.0714C19.1604 2.40111 19.5132 2.69463 19.9348 2.69463C20.0261 2.69463 20.114 2.68007 20.1963 2.65542L20.743 3.59651C20.5671 3.75784 20.4567 3.9875 20.4567 4.24406C20.4567 4.50062 20.5671 4.73029 20.743 4.89162L20.1963 5.8327C20.114 5.80693 20.0272 5.79461 19.9371 5.79461H19.9359H19.9348C19.5132 5.79461 19.1604 6.08702 19.0714 6.48026H17.969C17.88 6.08702 17.5272 5.79461 17.1056 5.79461C17.0154 5.79461 16.9286 5.80693 16.8463 5.8327L16.2997 4.88938C16.4744 4.72917 16.5848 4.4995 16.5848 4.24406C16.5848 3.98863 16.4744 3.75896 16.2997 3.59875L16.8463 2.65542C16.9286 2.68007 17.0154 2.69463 17.1056 2.69463ZM11.4585 2.69463C11.8811 2.69463 12.2339 2.40111 12.323 2.00787H13.4254C13.5144 2.40111 13.8661 2.69463 14.2888 2.69463C14.379 2.69463 14.468 2.68007 14.5503 2.65542L15.097 3.59651C14.9211 3.75784 14.8095 3.9875 14.8095 4.24406C14.8095 4.50062 14.9211 4.73029 15.097 4.89162L14.5503 5.8327C14.468 5.80805 14.379 5.79461 14.2888 5.79461C13.8661 5.79461 13.5144 6.08702 13.4254 6.48026H12.3241C12.2351 6.08702 11.8823 5.79461 11.4607 5.79461H11.4596H11.4585C11.3694 5.79461 11.2826 5.80693 11.2003 5.83158L10.6536 4.8905C10.8295 4.72917 10.9388 4.4995 10.9388 4.24406C10.9388 3.9875 10.8295 3.75784 10.6536 3.59763L11.2003 2.65542C11.2815 2.68007 11.3694 2.69463 11.4585 2.69463ZM7.22253 5.12465C7.64522 5.12465 7.99803 4.83112 8.08707 4.439H9.18832C9.27737 4.83112 9.62905 5.12465 10.0517 5.12465H10.0529C10.1442 5.12465 10.231 5.1112 10.3144 5.08656L10.8599 6.02652C10.6841 6.18785 10.5725 6.41752 10.5725 6.6752C10.5725 6.93175 10.6841 7.16254 10.8599 7.32387L10.3144 8.26384C10.2321 8.23807 10.1442 8.22462 10.0529 8.22462C9.6313 8.22462 9.2785 8.51815 9.18832 8.91027H8.08707C7.99803 8.51815 7.64522 8.22462 7.22253 8.22462H7.2214H7.22028C7.13123 8.22462 7.04556 8.23807 6.96441 8.26271L6.41773 7.32051C6.59244 7.15918 6.70178 6.93063 6.70178 6.6752C6.70178 6.41976 6.59244 6.19009 6.41773 6.02988L6.96441 5.08656C7.04669 5.1112 7.13348 5.12465 7.22253 5.12465ZM2.17617 8.45989L2.72398 7.51769C2.80626 7.54234 2.89305 7.55578 2.98323 7.55578C3.40479 7.55578 3.7576 7.26225 3.84664 6.87013H4.94902C5.03807 7.26225 5.38975 7.55578 5.81244 7.55578H5.81356H5.81582C5.90599 7.55578 5.99278 7.54234 6.07394 7.51769L6.62062 8.45877C6.44478 8.61898 6.33319 8.84977 6.33319 9.10633C6.33319 9.36177 6.44478 9.59256 6.62062 9.75277L6.07394 10.695C5.99166 10.6692 5.90374 10.6558 5.81244 10.6558C5.38975 10.6558 5.03807 10.9493 4.94902 11.3414H3.84664C3.7576 10.9493 3.40479 10.6558 2.98323 10.6558C2.89305 10.6558 2.80626 10.6692 2.72398 10.6938L2.17617 9.75165C2.35201 9.59032 2.46135 9.36177 2.46135 9.10633C2.46135 8.85089 2.35201 8.62122 2.17617 8.45989ZM2.17617 13.321L2.72398 12.38C2.80626 12.4035 2.89305 12.418 2.98323 12.418C3.40479 12.418 3.7576 12.1234 3.84664 11.7313H4.94902C5.03807 12.1234 5.38975 12.418 5.81244 12.418C5.90374 12.418 5.99166 12.4035 6.07394 12.3788L6.62062 13.3199C6.44478 13.4801 6.33319 13.7109 6.33319 13.9675C6.33319 14.224 6.44478 14.4537 6.62062 14.615L6.07394 15.5561C5.99166 15.5315 5.90374 15.5169 5.81244 15.5169C5.38975 15.5169 5.03807 15.8104 4.94902 16.2037H3.84664C3.7576 15.8104 3.40479 15.5169 2.98323 15.5169C2.89305 15.5169 2.80626 15.5315 2.72398 15.555L2.17617 14.6128C2.35201 14.4526 2.46135 14.2229 2.46135 13.9675C2.46135 13.712 2.35201 13.4824 2.17617 13.321ZM2.98323 20.3792C2.89305 20.3792 2.80626 20.3926 2.72398 20.4173L2.17617 19.4751C2.35201 19.3137 2.46135 19.0841 2.46135 18.8286C2.46135 18.5732 2.35201 18.3446 2.17617 18.1833L2.72398 17.2411C2.80626 17.2658 2.89305 17.2792 2.98323 17.2792C3.40479 17.2792 3.7576 16.9857 3.84664 16.5935H4.94902C5.03807 16.9857 5.38975 17.2792 5.81244 17.2792C5.90374 17.2792 5.99166 17.2658 6.07394 17.24L6.62062 18.1811C6.44478 18.3424 6.33319 18.5721 6.33319 18.8286C6.33319 19.0852 6.44478 19.316 6.62062 19.4762L6.07394 20.4173C5.99278 20.3926 5.90599 20.3792 5.81582 20.3792H5.81356H5.81244C5.38975 20.3792 5.03807 20.6727 4.94902 21.0648H3.84664C3.7576 20.6727 3.40479 20.3792 2.98323 20.3792ZM7.22253 22.8103C7.13348 22.8103 7.04669 22.8238 6.96441 22.8484L6.41773 21.9051C6.59244 21.7449 6.70178 21.5152 6.70178 21.2598C6.70178 21.0043 6.59244 20.7747 6.41773 20.6144L6.96441 19.6722C7.04556 19.6969 7.13123 19.7092 7.22028 19.7092H7.2214H7.22253C7.64522 19.7092 7.99803 19.4168 8.08707 19.0236H9.18832C9.2785 19.4168 9.6313 19.7092 10.0529 19.7092C10.1442 19.7092 10.2321 19.6958 10.3144 19.6711L10.861 20.6122C10.6852 20.7735 10.5736 21.0032 10.5736 21.2598C10.5736 21.5163 10.6852 21.746 10.861 21.9073L10.3144 22.8484C10.2321 22.8238 10.1453 22.8103 10.054 22.8103H10.0529C9.6313 22.8103 9.2785 23.1027 9.18832 23.496H8.08707C7.99803 23.1027 7.64522 22.8103 7.22253 22.8103ZM24.6937 26.122C24.6937 26.1355 24.6949 26.15 24.696 26.1635C24.696 26.1668 24.6949 26.1702 24.6949 26.1747C24.6949 26.42 24.7974 26.643 24.9609 26.8032L24.4334 27.7107C24.3511 27.6849 24.2632 27.6715 24.1719 27.6715C23.7503 27.6715 23.3975 27.965 23.3084 28.3571H22.2061C22.117 27.965 21.7642 27.6715 21.3426 27.6715C21.2525 27.6715 21.1657 27.6849 21.0845 27.7095L20.5367 26.7673C20.7114 26.606 20.8219 26.3775 20.8219 26.122C20.8219 25.8666 20.7114 25.6369 20.5367 25.4756L21.0834 24.5334C21.1657 24.558 21.2513 24.5715 21.3415 24.5715C21.3426 24.5715 21.3426 24.5715 21.3426 24.5715C21.7642 24.5715 22.117 24.278 22.2061 23.8858H23.3084C23.3975 24.278 23.7503 24.5715 24.1719 24.5715C24.2632 24.5715 24.3511 24.558 24.4334 24.5323L24.98 25.4745C24.8042 25.6347 24.6937 25.8655 24.6937 26.122ZM29.2193 34.0742L28.6986 34.9727C28.6084 34.9413 28.5115 34.9245 28.4112 34.9245C27.9896 34.9245 27.6368 35.2181 27.5477 35.6102H26.4454C26.3563 35.2181 26.0035 34.9245 25.5808 34.9245C25.4828 34.9245 25.3869 34.9413 25.2979 34.9716L24.776 34.0731C24.9496 33.9117 25.0601 33.6821 25.0601 33.4266C25.0601 33.1712 24.9496 32.9426 24.776 32.7813L25.3035 31.8716C25.3915 31.9007 25.485 31.9164 25.5808 31.9164C26.0035 31.9164 26.3552 31.6229 26.4454 31.2308H27.5477C27.6368 31.6229 27.9896 31.9164 28.4112 31.9164C28.5092 31.9164 28.6039 31.8996 28.6918 31.8705L29.2193 32.7791C29.0435 32.9404 28.933 33.1701 28.933 33.4266C28.933 33.6832 29.0435 33.914 29.2193 34.0742ZM28.4112 27.0553C28.5025 27.0553 28.5904 27.0407 28.6727 27.0161L29.2047 27.9314C29.0367 28.0916 28.933 28.3168 28.933 28.5655C28.933 28.5722 28.933 28.5789 28.9342 28.5845C28.933 28.5913 28.933 28.598 28.933 28.6047C28.933 28.8545 29.0367 29.0786 29.2047 29.2388L28.6727 30.1541C28.5904 30.1284 28.5025 30.1149 28.4112 30.1149C27.9896 30.1149 27.6368 30.4084 27.5477 30.8006H26.4454C26.3563 30.4084 26.0035 30.1149 25.5808 30.1149C25.4918 30.1149 25.405 30.1284 25.3227 30.153L24.7907 29.2366C24.9564 29.0764 25.0601 28.8534 25.0601 28.6047C25.0601 28.598 25.0601 28.5913 25.0601 28.5845C25.0601 28.5789 25.0601 28.5722 25.0601 28.5655C25.0601 28.5319 25.0578 28.4983 25.0544 28.4658C25.0341 28.2551 24.9383 28.0658 24.7952 27.9258L25.3227 27.0161C25.405 27.0407 25.4918 27.0553 25.5808 27.0553C26.0035 27.0553 26.3563 26.7617 26.4454 26.3685H27.5477C27.6368 26.7617 27.9896 27.0553 28.4112 27.0553ZM29.2193 19.4762L28.6727 20.4184C28.5904 20.3926 28.5025 20.3792 28.4112 20.3792C27.9896 20.3792 27.6368 20.6727 27.5477 21.0648H26.4454C26.3563 20.6727 26.0035 20.3792 25.5808 20.3792H25.5797C25.4906 20.3792 25.4039 20.3926 25.3227 20.4173L24.776 19.4751C24.9496 19.3137 25.0601 19.0841 25.0601 18.8286C25.0601 18.5732 24.9496 18.3446 24.776 18.1833L25.3227 17.2411C25.405 17.2658 25.4918 17.2792 25.5808 17.2792C26.0035 17.2792 26.3563 16.9857 26.4454 16.5935H27.5477C27.6368 16.9857 27.9896 17.2792 28.4112 17.2792C28.5025 17.2792 28.5904 17.2658 28.6727 17.24L29.2193 18.1811C29.0435 18.3424 28.933 18.5721 28.933 18.8286C28.933 19.0852 29.0435 19.316 29.2193 19.4762ZM29.2193 14.615L28.6727 15.5561C28.5904 15.5315 28.5025 15.5169 28.4112 15.5169C27.9896 15.5169 27.6368 15.8104 27.5477 16.2037H26.4454C26.3563 15.8104 26.0035 15.5169 25.5808 15.5169C25.4918 15.5169 25.405 15.5315 25.3227 15.555L24.776 14.6128C24.9496 14.4526 25.0601 14.2229 25.0601 13.9675C25.0601 13.712 24.9496 13.4824 24.776 13.321L25.3227 12.38C25.405 12.4035 25.4918 12.418 25.5808 12.418C26.0035 12.418 26.3563 12.1234 26.4454 11.7313H27.5477C27.6368 12.1234 27.9896 12.418 28.4112 12.418C28.5025 12.418 28.5904 12.4035 28.6727 12.3788L29.2193 13.3199C29.0435 13.4801 28.933 13.7109 28.933 13.9675C28.933 14.224 29.0435 14.4537 29.2193 14.615ZM29.819 9.98692C30.3082 9.98692 30.705 9.59256 30.705 9.10633C30.705 8.61898 30.3082 8.22462 29.819 8.22462C29.7288 8.22462 29.642 8.23807 29.5586 8.26384L29.0119 7.32163C29.1878 7.1603 29.2971 6.93063 29.2971 6.6752C29.2971 6.41864 29.1878 6.18897 29.0119 6.02876L29.5586 5.08656C29.642 5.1112 29.7288 5.12465 29.819 5.12465C30.3082 5.12465 30.705 4.73029 30.705 4.24406C30.705 3.75784 30.3082 3.36348 29.819 3.36348C29.7288 3.36348 29.642 3.37692 29.5586 3.40157L29.0119 2.46048C29.1878 2.29803 29.2971 2.06837 29.2971 1.81293C29.2971 1.3267 28.9003 0.932343 28.4112 0.932343C27.9896 0.932343 27.6368 1.22587 27.5477 1.61911H26.4454C26.3563 1.22587 26.0035 0.932343 25.5808 0.932343C25.0916 0.932343 24.6949 1.3267 24.6949 1.81293C24.6949 2.06949 24.8064 2.30028 24.9834 2.4616L24.4367 3.40269C24.3533 3.37692 24.2654 3.36348 24.1741 3.36348C23.7514 3.36348 23.3997 3.65588 23.3096 4.04912H22.2083C22.1193 3.65588 21.7665 3.36348 21.3438 3.36348H21.3426C21.2525 3.36348 21.1645 3.37692 21.0834 3.40157L20.5356 2.46048C20.7114 2.29803 20.8219 2.06949 20.8219 1.81293C20.8219 1.3267 20.4251 0.932343 19.9348 0.932343C19.5132 0.932343 19.1604 1.22587 19.0714 1.61911H17.969C17.88 1.22587 17.5272 0.932343 17.1056 0.932343C16.6153 0.932343 16.2185 1.3267 16.2185 1.81293C16.2185 2.06949 16.3301 2.30028 16.5071 2.4616L15.9604 3.40269C15.877 3.37692 15.7891 3.36348 15.6978 3.36348H15.6966H15.6955C15.6053 3.36348 15.5185 3.37692 15.4362 3.40157L14.8896 2.46048C15.0643 2.29803 15.1747 2.06949 15.1747 1.81293C15.1747 1.3267 14.778 0.932343 14.2888 0.932343C13.8661 0.932343 13.5144 1.22587 13.4242 1.61911H12.323C12.2339 1.22587 11.8811 0.932343 11.4585 0.932343C10.9693 0.932343 10.5725 1.3267 10.5725 1.81293C10.5725 2.06949 10.6841 2.30028 10.8599 2.4616L10.3144 3.40157C10.231 3.37692 10.1442 3.36348 10.0529 3.36348H10.0517C9.62905 3.36348 9.27737 3.65588 9.18832 4.04912H8.08707C7.99803 3.65588 7.64522 3.36348 7.22253 3.36348C6.73334 3.36348 6.33657 3.75784 6.33657 4.24406C6.33657 4.50062 6.44816 4.73141 6.62513 4.89274L6.07845 5.8327C5.99504 5.80805 5.90712 5.79461 5.81582 5.79461H5.81356H5.81244C5.38975 5.79461 5.03807 6.08702 4.94902 6.48026H3.84664C3.7576 6.08702 3.40479 5.79461 2.98323 5.79461C2.49291 5.79461 2.09614 6.18897 2.09614 6.6752C2.09614 6.93175 2.20773 7.16254 2.38357 7.32275L1.83802 8.26384C1.75461 8.23807 1.66669 8.22462 1.57539 8.22462C1.08619 8.22462 0.688301 8.61898 0.688301 9.10633C0.688301 9.59256 1.08619 9.98692 1.57539 9.98692C1.66669 9.98692 1.75461 9.97347 1.83802 9.9477L2.38357 10.8877C2.20773 11.049 2.09614 11.2798 2.09614 11.5363C2.09614 11.794 2.20773 12.0237 2.38357 12.185L1.83802 13.1261C1.75461 13.1003 1.66669 13.0858 1.57539 13.0858C1.08619 13.0858 0.688301 13.4801 0.688301 13.9675C0.688301 14.4537 1.08619 14.8481 1.57539 14.8481C1.66669 14.8481 1.75461 14.8346 1.83802 14.8089L2.38357 15.7499C2.20773 15.9101 2.09614 16.1409 2.09614 16.3975C2.09614 16.6552 2.20773 16.8848 2.38357 17.0473L1.83802 17.9872C1.75461 17.9615 1.66669 17.948 1.57539 17.948C1.08619 17.948 0.688301 18.3424 0.688301 18.8286C0.688301 19.3149 1.08619 19.7092 1.57539 19.7092C1.66669 19.7092 1.75461 19.6958 1.83802 19.67L2.38357 20.6111C2.20773 20.7724 2.09614 21.0032 2.09614 21.2598C2.09614 21.746 2.49291 22.1403 2.98323 22.1403C3.40479 22.1403 3.7576 21.8479 3.84664 21.4547H4.94902C5.03807 21.8479 5.38975 22.1403 5.81244 22.1403H5.81356H5.81582C5.90712 22.1403 5.99504 22.1269 6.07845 22.1011L6.62513 23.0422C6.44816 23.2035 6.33657 23.4343 6.33657 23.6909C6.33657 24.1771 6.73334 24.5715 7.22253 24.5715C7.64522 24.5715 7.99803 24.278 8.08707 23.8858H9.18945C9.2785 24.278 9.6313 24.5715 10.0529 24.5715H10.054C10.1453 24.5715 10.2343 24.558 10.3166 24.5323L10.8633 25.4734C10.6875 25.6347 10.5747 25.8643 10.5747 26.122C10.5747 26.6083 10.9726 27.0026 11.4618 27.0026C11.8845 27.0026 12.2362 26.7091 12.3252 26.3158H13.4276C13.5167 26.7091 13.8695 27.0026 14.291 27.0026C14.7814 27.0026 15.1781 26.6083 15.1781 26.122C15.1781 25.8655 15.0677 25.6358 14.893 25.4745L15.4385 24.5334C15.5208 24.558 15.6065 24.5715 15.6966 24.5715C15.6966 24.5715 15.6966 24.5715 15.6978 24.5715H15.6989C15.7891 24.5715 15.877 24.558 15.9593 24.5334L16.5059 25.4734C16.329 25.6347 16.2174 25.8643 16.2174 26.122C16.2174 26.6083 16.6141 27.0026 17.1033 27.0026C17.526 27.0026 17.8777 26.7091 17.9679 26.3158H19.0703C19.1593 26.7091 19.5121 27.0026 19.9337 27.0026H19.9348C20.0261 27.0026 20.114 26.9892 20.1974 26.9634L20.7441 27.9034C20.5671 28.0647 20.4567 28.2955 20.4567 28.552C20.4567 29.0394 20.8534 29.4337 21.3426 29.4337C21.7642 29.4337 22.117 29.1391 22.2061 28.747H23.3005C23.3693 29.166 23.7334 29.4864 24.1741 29.4864C24.2654 29.4864 24.3533 29.4718 24.4367 29.4461L24.9676 30.3614C24.8008 30.5216 24.6949 30.7468 24.6949 30.9966C24.6949 31.0033 24.696 31.0089 24.696 31.0157C24.696 31.0224 24.6949 31.0291 24.6949 31.0358C24.6949 31.2857 24.7997 31.5097 24.9676 31.6699L24.4367 32.5853C24.3533 32.5595 24.2654 32.546 24.1741 32.546C23.6849 32.546 23.2881 32.9404 23.2881 33.4266C23.2881 33.914 23.6849 34.3083 24.1741 34.3083C24.2654 34.3083 24.3533 34.2938 24.4367 34.2691L24.9631 35.1755C24.7986 35.3346 24.6949 35.5586 24.6949 35.8051C24.6949 35.8141 24.696 35.823 24.696 35.832C24.696 35.8398 24.6949 35.8488 24.6949 35.8578C24.6949 36.1054 24.7986 36.3283 24.9631 36.4885L24.4525 37.3657C24.3657 37.3366 24.271 37.3198 24.1741 37.3198C23.7514 37.3198 23.3997 37.6133 23.3096 38.0066H22.2083C22.1193 37.6133 21.7665 37.3198 21.3438 37.3198C20.8546 37.3198 20.4578 37.7142 20.4578 38.2015C20.4578 38.4581 20.5694 38.6889 20.7452 38.8491L20.1997 39.7901C20.1163 39.7644 20.0284 39.7509 19.9371 39.7509C19.5144 39.7509 19.1627 40.0445 19.0736 40.4366H17.9713C17.8811 40.0445 17.5283 39.7509 17.1067 39.7509C16.6175 39.7509 16.2208 40.1453 16.2208 40.6315C16.2208 40.8892 16.3312 41.1189 16.5082 41.2802L15.9615 42.2213C15.8792 42.1955 15.7902 42.1821 15.6989 42.1821H15.6978H15.6955C15.6053 42.1821 15.5185 42.1955 15.4362 42.2202L14.8896 41.278C15.0643 41.1178 15.1747 40.8881 15.1747 40.6315C15.1747 40.1453 14.778 39.7509 14.2888 39.7509C13.8661 39.7509 13.5144 40.0445 13.4254 40.4366H12.323C12.2339 40.0445 11.8811 39.7509 11.4585 39.7509H11.4539H11.4494C11.3593 39.7509 11.2725 39.7644 11.1902 39.7901L10.6435 38.8479C10.8182 38.6866 10.9287 38.4569 10.9287 38.2015C10.9287 37.7142 10.5319 37.3198 10.0427 37.3198C9.62003 37.3198 9.26722 37.6133 9.17818 38.0066H8.09271C8.01606 37.5976 7.65537 37.2873 7.2214 37.2873C7.13123 37.2873 7.04444 37.3008 6.96215 37.3254L6.41998 36.3944C6.51128 36.307 6.5823 36.2017 6.62851 36.0841C6.67472 35.9776 6.70065 35.86 6.70065 35.7379C6.70065 35.7356 6.69952 35.7345 6.69952 35.7323C6.69952 35.7312 6.70065 35.7289 6.70065 35.7278C6.70065 35.4712 6.59019 35.2416 6.41547 35.0814L6.94412 34.1694C7.02866 34.1963 7.11883 34.2109 7.21239 34.2109C7.62042 34.2109 7.96421 33.9364 8.06678 33.5633C8.09271 33.4793 8.10849 33.3897 8.10849 33.2967C8.10849 32.8104 7.7106 32.4161 7.2214 32.4161C7.13123 32.4161 7.04444 32.4295 6.96215 32.4542L6.41435 31.512C6.59019 31.3518 6.70065 31.1221 6.70065 30.8667C6.70065 30.3793 6.30388 29.985 5.81356 29.985C5.392 29.985 5.03919 30.2785 4.95015 30.6706H3.84777C3.75872 30.2785 3.40592 29.985 2.98436 29.985C2.49516 29.985 2.09727 30.3793 2.09727 30.8667C2.09727 31.1232 2.20886 31.354 2.38583 31.5142L1.83915 32.4553C1.75574 32.4295 1.66782 32.4161 1.57651 32.4161C1.08732 32.4161 0.690555 32.8104 0.690555 33.2967C0.690555 33.784 1.08732 34.1784 1.57651 34.1784C1.66782 34.1784 1.75574 34.1638 1.83915 34.138L2.38583 35.0791C2.20886 35.2405 2.09727 35.4701 2.09727 35.7278C2.09727 35.7289 2.0984 35.7312 2.0984 35.7323C2.0984 35.7345 2.09727 35.7356 2.09727 35.7379C2.09727 35.9944 2.20886 36.2241 2.38583 36.3854L1.83915 37.3265C1.75574 37.3008 1.66782 37.2873 1.57651 37.2873C1.08732 37.2873 0.690555 37.6817 0.690555 38.1679C0.690555 38.6553 1.08732 39.0496 1.57651 39.0496C1.66782 39.0496 1.75574 39.035 1.83915 39.0104L2.38583 39.9504C2.20886 40.1117 2.09727 40.3425 2.09727 40.599C2.09727 41.0853 2.49516 41.4796 2.98436 41.4796C3.40592 41.4796 3.75872 41.1861 3.84777 40.794H4.93437C5.01101 41.2029 5.37171 41.5132 5.80567 41.5132C5.89697 41.5132 5.98489 41.4998 6.06718 41.474L6.61386 42.4151C6.43802 42.5753 6.32643 42.8061 6.32643 43.0627C6.32643 43.5489 6.72319 43.9432 7.21239 43.9432C7.63508 43.9432 7.98675 43.6508 8.07693 43.2576H9.17818C9.26722 43.6508 9.62003 43.9432 10.0427 43.9432H10.0472H10.0517C10.143 43.9432 10.231 43.9298 10.3144 43.904L10.8599 44.8451C10.6841 45.0064 10.5725 45.2372 10.5725 45.4938C10.5725 45.98 10.9693 46.3744 11.4585 46.3744C11.8811 46.3744 12.2339 46.082 12.323 45.6887H13.4254C13.5144 46.082 13.8661 46.3744 14.2888 46.3744C14.778 46.3744 15.1747 45.98 15.1747 45.4938C15.1747 45.2384 15.0643 45.0087 14.8896 44.8474L15.4362 43.9052C15.5185 43.9298 15.6053 43.9432 15.6955 43.9432H15.6978H15.6989C15.7902 43.9432 15.8792 43.9298 15.9615 43.904L16.5082 44.8451C16.3312 45.0064 16.2208 45.2372 16.2208 45.4938C16.2208 45.98 16.6175 46.3744 17.1067 46.3744C17.5283 46.3744 17.8811 46.082 17.9713 45.6887H19.0736C19.1627 46.082 19.5144 46.3744 19.9371 46.3744C20.4263 46.3744 20.823 45.98 20.823 45.4938C20.823 45.2384 20.7126 45.0087 20.5367 44.8474L21.0845 43.9052C21.1668 43.9298 21.2536 43.9432 21.3438 43.9432C21.7665 43.9432 22.1193 43.6508 22.2083 43.2576H23.3096C23.3997 43.6508 23.7514 43.9432 24.1741 43.9432C24.6633 43.9432 25.0601 43.5489 25.0601 43.0627C25.0601 42.8072 24.9496 42.5776 24.7749 42.4162L25.3047 41.5032C25.3915 41.5323 25.485 41.548 25.5808 41.548C26.0035 41.548 26.3563 41.2544 26.4454 40.8612H27.5477C27.6368 41.2544 27.9896 41.548 28.4112 41.548C28.9003 41.548 29.2971 41.1536 29.2971 40.6674C29.2971 40.4108 29.1878 40.1811 29.0119 40.0198L29.5586 39.0787C29.642 39.1034 29.7288 39.1168 29.819 39.1168C30.3082 39.1168 30.705 38.7225 30.705 38.2362C30.705 37.75 30.3082 37.3557 29.819 37.3557C29.7288 37.3557 29.642 37.3691 29.5586 37.3937L29.0322 36.4863C29.1957 36.3261 29.2971 36.1042 29.2971 35.8578C29.2971 35.8488 29.296 35.8398 29.296 35.832C29.296 35.823 29.2971 35.8141 29.2971 35.8051C29.2971 35.5586 29.1957 35.3368 29.0322 35.1766L29.5586 34.2691C29.642 34.2949 29.7288 34.3083 29.819 34.3083C30.3082 34.3083 30.705 33.914 30.705 33.4266C30.705 32.9404 30.3082 32.546 29.819 32.546C29.7288 32.546 29.642 32.5595 29.5586 32.5841L29.0277 31.6688C29.1934 31.5086 29.2971 31.2845 29.2971 31.0358C29.2971 31.0291 29.2971 31.0224 29.296 31.0157C29.2971 31.0089 29.2971 31.0033 29.2971 30.9966C29.2971 30.7479 29.1934 30.5238 29.0277 30.3636L29.5586 29.4472C29.642 29.4718 29.7288 29.4864 29.819 29.4864C30.3082 29.4864 30.705 29.092 30.705 28.6047C30.705 28.598 30.7038 28.5913 30.7038 28.5845C30.7038 28.5789 30.705 28.5722 30.705 28.5655C30.705 28.0793 30.3082 27.6849 29.819 27.6849C29.7288 27.6849 29.642 27.6983 29.5586 27.723L29.0277 26.8066C29.1934 26.6463 29.2971 26.4223 29.2971 26.1747C29.2971 26.168 29.2971 26.1612 29.296 26.1545C29.2971 26.1478 29.2971 26.1411 29.2971 26.1343C29.2971 25.6481 28.9003 25.2538 28.4112 25.2538C27.9896 25.2538 27.6368 25.5462 27.5477 25.9394H26.4476C26.3631 25.5406 26.0069 25.2403 25.5797 25.2403C25.4895 25.2403 25.4027 25.2538 25.3204 25.2795L24.7726 24.3373C24.9485 24.176 25.0589 23.9463 25.0589 23.6909C25.0589 23.4343 24.9485 23.2058 24.7726 23.0445L25.3204 22.1023C25.4027 22.1269 25.4895 22.1403 25.5797 22.1403H25.5808C26.0035 22.1403 26.3552 21.8479 26.4454 21.4547H27.5477C27.6368 21.8479 27.9896 22.1403 28.4112 22.1403C28.9003 22.1403 29.2971 21.746 29.2971 21.2598C29.2971 21.0043 29.1878 20.7747 29.0119 20.6133L29.5586 19.6711C29.642 19.6958 29.7288 19.7092 29.819 19.7092C30.3082 19.7092 30.705 19.3149 30.705 18.8286C30.705 18.3424 30.3082 17.948 29.819 17.948C29.7288 17.948 29.642 17.9615 29.5586 17.9861L29.0119 17.045C29.1878 16.8837 29.2971 16.654 29.2971 16.3975C29.2971 16.1421 29.1878 15.9124 29.0119 15.7522L29.5586 14.81C29.642 14.8346 29.7288 14.8481 29.819 14.8481C30.3082 14.8481 30.705 14.4537 30.705 13.9675C30.705 13.4801 30.3082 13.0858 29.819 13.0858C29.7288 13.0858 29.642 13.1003 29.5586 13.125L29.0119 12.1828C29.1878 12.0226 29.2971 11.7929 29.2971 11.5363C29.2971 11.2809 29.1878 11.0512 29.0119 10.8899L29.5586 9.9477C29.642 9.97347 29.7288 9.98692 29.819 9.98692Z" fill="#787878"/>
</g>
</svg>
