<svg width="128" height="129" viewBox="0 0 128 129" fill="none" xmlns="http://www.w3.org/2000/svg">
<g clip-path="url(#clip0)">
<path d="M31.5697 75.8543C30.576 81.2993 26.6374 106.682 25.4712 113.856C25.385 114.369 25.1854 114.564 24.6182 114.564H3.46417C1.30884 114.564 -0.252073 112.695 0.0337918 110.621L16.6548 5.1503C17.0813 2.42778 19.518 0.358657 22.3267 0.358657C65.5196 0.358657 69.1496 -0.689515 80.1804 3.59392C97.2234 10.2006 98.7843 26.141 92.6586 43.3836C86.5602 61.139 72.099 68.7666 52.9279 68.9935C40.6221 69.1932 33.2168 67.0061 31.5742 75.8543H31.5697ZM101.253 35.0436C100.74 34.6761 100.545 34.5309 100.4 35.4112C99.8325 38.6419 98.9522 41.7909 97.904 44.94C86.5874 77.2155 55.2239 74.4068 39.9097 74.4068C38.1809 74.4068 37.0465 75.3415 36.8196 77.0703C30.4126 116.887 29.133 125.195 29.133 125.195C28.8472 127.21 30.1268 128.853 32.1369 128.853H50.1464C52.5876 128.853 54.5977 127.065 55.0832 124.628C55.2829 123.099 54.7701 126.357 59.167 98.7371C60.4738 92.498 63.2236 93.1514 67.4753 93.1514C87.6129 93.1514 103.322 84.9838 108 61.3024C109.842 51.4332 109.307 41.0513 101.253 35.0391V35.0436Z" fill="#E16C5C"/>
</g>
<defs>
<clipPath id="clip0">
<rect width="128" height="128" fill="white" transform="translate(0 0.245483)"/>
</clipPath>
</defs>
</svg>
