<svg width="128" height="129" viewBox="0 0 128 129" fill="none" xmlns="http://www.w3.org/2000/svg">
<path d="M126.084 79.7297C117.535 114.019 82.8057 134.888 48.5121 126.337C14.2324 117.788 -6.63579 83.0561 1.91713 48.7684C10.462 14.4747 45.1917 -6.39548 79.4754 2.15343C113.767 10.7023 134.633 45.438 126.084 79.7297Z" fill="#E16C5C"/>
<path d="M92.2205 55.127C93.4946 46.6101 87.0099 42.0316 78.143 38.9773L81.0193 27.4401L73.9966 25.6899L71.1963 36.9231C69.3501 36.463 67.4539 36.029 65.5697 35.599L68.39 24.2918L61.3712 22.5416L58.4929 34.0748C56.9647 33.7268 55.4646 33.3827 54.0084 33.0207L54.0164 32.9847L44.3314 30.5664L42.4632 38.0672C42.4632 38.0672 47.6738 39.2613 47.5637 39.3354C50.408 40.0454 50.9221 41.9276 50.8361 43.4198L47.5597 56.5632C47.7558 56.6132 48.0098 56.6852 48.2898 56.7972C48.0558 56.7392 47.8058 56.6752 47.5477 56.6132L42.9553 75.0252C42.6072 75.8892 41.7251 77.1854 39.7369 76.6933C39.8069 76.7953 34.6324 75.4192 34.6324 75.4192L31.146 83.4581L40.285 85.7363C41.9852 86.1623 43.6513 86.6084 45.2915 87.0284L42.3852 98.6977L49.3999 100.448L52.2782 88.9026C54.1945 89.4227 56.0546 89.9027 57.8748 90.3548L55.0065 101.846L62.0293 103.596L64.9356 91.949C76.9109 94.2152 85.9158 93.3011 89.7062 82.4699C92.7606 73.749 89.5542 68.7185 83.2535 65.4381C87.842 64.38 91.2984 61.3617 92.2205 55.127ZM76.1748 77.6274C74.0046 86.3484 59.321 81.6339 54.5605 80.4517L58.4169 64.9921C63.1774 66.1802 78.443 68.5325 76.1748 77.6274ZM78.347 55.001C76.3668 62.9339 64.1455 58.9034 60.1811 57.9153L63.6775 43.8938C67.6419 44.8819 80.4092 46.7261 78.347 55.001Z" fill="white"/>
</svg>
