<svg width="128" height="129" viewBox="0 0 128 129" fill="none" xmlns="http://www.w3.org/2000/svg">
<path d="M128 115.87C128 122.703 122.463 128.245 115.624 128.245H12.3755C5.54363 128.245 0 122.702 0 115.87V12.621C0 5.78777 5.54363 0.245483 12.3755 0.245483H115.624C122.463 0.245483 128 5.78777 128 12.621V115.87Z" fill="#E16C5C"/>
<path d="M52.1634 89.9183C48.0408 89.9183 44.8042 89.3804 42.4534 88.3073C40.1026 87.2328 38.4172 85.7679 37.4025 83.9072C36.3852 82.0504 35.8924 79.9228 35.9216 77.5082C35.9495 75.099 36.2829 72.5304 36.9231 69.8011L47.9824 23.5595L61.4815 21.4704L49.377 71.6312C49.1445 72.6751 49.0144 73.6341 48.9852 74.504C48.9546 75.3739 49.1153 76.1443 49.4633 76.811C49.8113 77.4804 50.4062 78.0169 51.2483 78.422C52.089 78.8297 53.2657 79.0914 54.7758 79.2069L52.1634 89.9117" fill="white"/>
<path d="M100.919 61.0978C100.919 65.3345 100.222 69.21 98.8286 72.7229C97.4354 76.2372 95.5043 79.2693 93.0379 81.8233C90.5703 84.3799 87.6098 86.3668 84.1554 87.7879C80.7009 89.209 76.941 89.9222 72.8795 89.9222C70.9046 89.9222 68.931 89.7469 66.9574 89.3976L63.0381 105.161H50.1499L64.6053 44.9039C66.9268 44.2079 69.5831 43.5837 72.5727 43.0312C75.5637 42.48 78.8003 42.2051 82.284 42.2051C85.5353 42.2051 88.3377 42.6979 90.6871 43.6847C93.0392 44.6715 94.969 46.0222 96.4791 47.7341C97.9879 49.4474 99.1048 51.4502 99.83 53.7426C100.555 56.0349 100.919 58.4894 100.919 61.1031V61.0978ZM69.3069 78.9559C70.2937 79.1883 71.5129 79.3038 72.9645 79.3038C75.2277 79.3038 77.2889 78.8841 79.147 78.0408C81.0037 77.2001 82.5869 76.0247 83.8937 74.5146C85.198 73.0058 86.214 71.1929 86.9405 69.0719C87.6656 66.9535 88.0282 64.6173 88.0282 62.062C88.0282 59.5665 87.4757 57.4468 86.3747 55.7043C85.271 53.9631 83.3558 53.0918 80.6279 53.0918C78.7685 53.0918 77.0273 53.2658 75.4017 53.6151L69.3069 78.9559Z" fill="white"/>
</svg>
