<svg width="43" height="38" viewBox="0 0 43 38" fill="none" xmlns="http://www.w3.org/2000/svg">
<path d="M8.85294 38C6.04248 38 3.84096 36.9129 2.24837 34.7388C0.749455 32.5647 0 29.398 0 25.2388C0 19.5672 1.26471 14.6517 3.79412 10.4925C6.32353 6.33333 10.024 2.83582 14.8954 0L18.268 5.52986C14.7081 7.89304 12.0381 10.4453 10.2582 13.1866C8.47822 15.8333 7.58824 19.1418 7.58824 23.1119C7.86928 23.0174 8.29085 22.9701 8.85294 22.9701C10.7266 22.9701 12.4129 23.5846 13.9118 24.8134C15.5044 26.0423 16.3007 27.8383 16.3007 30.2015C16.3007 32.6592 15.598 34.597 14.1928 36.0149C12.7876 37.3383 11.0076 38 8.85294 38ZM33.585 38C30.7745 38 28.573 36.9129 26.9804 34.7388C25.4815 32.5647 24.732 29.398 24.732 25.2388C24.732 19.5672 25.9967 14.6517 28.5261 10.4925C31.0556 6.33333 34.756 2.83582 39.6275 0L43 5.52986C39.4401 7.89304 36.7702 10.4453 34.9902 13.1866C33.2102 15.8333 32.3203 19.1418 32.3203 23.1119C32.6013 23.0174 33.0229 22.9701 33.585 22.9701C35.4586 22.9701 37.1449 23.5846 38.6438 24.8134C40.2364 26.0423 41.0327 27.8383 41.0327 30.2015C41.0327 32.6592 40.3301 34.597 38.9248 36.0149C37.5196 37.3383 35.7397 38 33.585 38Z" fill="#F95F4A"/>
</svg>
