<svg width="117" height="31" viewBox="0 0 117 31" fill="none" xmlns="http://www.w3.org/2000/svg">
<path d="M61.8861 0.876526C61.8656 2.75721 61.8246 4.6379 61.8246 6.51859C61.8041 8.60595 61.8246 10.6726 61.8246 12.884C62.0092 12.4707 62.1527 12.1193 62.2962 11.7887C63.383 9.43263 65.2899 8.37861 67.8529 8.70928C68.9602 8.85395 69.8419 9.39129 70.5595 10.218C71.7693 11.582 72.2409 13.2767 72.5075 15.0127C72.9175 17.7201 72.774 20.4274 72.0769 23.0935C71.1132 26.7928 69.1242 29.5622 65.1873 30.4302C63.8956 30.4302 62.5833 30.4302 61.2915 30.4302C60.4508 30.2029 59.5896 29.9755 58.7489 29.7482C58.3388 29.6242 58.1953 29.3969 58.2363 28.9009C58.4004 26.8135 58.5644 24.7261 58.5849 22.6388C58.6464 17.7614 58.6259 12.884 58.6054 8.00661C58.6054 6.9526 58.4824 5.87792 58.4004 4.82391C58.3183 3.91456 58.0518 3.08789 57.2521 2.38521C58.8104 1.97187 60.4303 1.93054 61.6811 0.876526C61.7426 0.876526 61.8246 0.876526 61.8861 0.876526ZM61.7631 22.4528C61.8041 22.4528 61.8451 22.4528 61.8861 22.4528C61.8861 23.7548 61.8861 25.0568 61.8861 26.3795C61.8861 26.6275 61.9066 26.8548 61.9271 27.1028C61.9476 27.5782 62.0297 27.9708 62.5833 28.1155C64.4287 28.5908 66.5817 27.8262 67.6479 26.2142C68.058 25.5941 68.386 24.8915 68.6116 24.1681C69.4318 21.3368 69.5138 18.4641 68.9192 15.612C68.7141 14.6614 68.304 13.69 67.7299 12.9253C66.5817 11.3753 64.6542 11.458 63.4445 12.9873C62.6243 14.0207 62.2347 15.2194 62.1322 16.5007C61.9681 18.4641 61.8861 20.4481 61.7631 22.4528Z" fill="black"/>
<path d="M0.987762 22.3701C1.06978 22.1014 1.1518 21.8534 1.21331 21.5848C1.80794 19.0427 3.4278 17.5134 5.92935 17.0174C6.95457 16.8107 8.02081 16.8107 9.08704 16.7487C9.53814 16.728 9.96873 16.7487 10.4198 16.79C11.0145 16.852 11.322 16.666 11.2605 16.0047C11.199 15.2607 11.2605 14.4753 11.117 13.752C10.8094 12.078 9.90722 11.334 8.22585 11.272C6.56499 11.1893 5.04765 11.6233 3.67385 12.5533C3.36628 12.76 3.05872 12.9667 2.68964 13.2353C2.34106 12.326 2.01299 11.52 1.76693 10.6726C1.72592 10.5486 1.99248 10.218 2.17702 10.1146C3.65335 9.34995 5.21169 8.81262 6.85205 8.72995C8.04131 8.66795 9.25108 8.64728 10.4198 8.85395C12.9214 9.28795 14.2132 10.714 14.3157 13.2767C14.4182 16.0667 14.3362 18.8361 14.3772 21.6261C14.3977 23.5895 14.4387 25.5528 14.5412 27.4955C14.5822 28.3428 14.8078 29.1695 14.9718 30.0789C14.9103 30.0995 14.7258 30.1409 14.5412 30.1409C13.8031 30.1409 13.0444 30.0789 12.3062 30.1202C11.4861 30.1615 11.4656 30.1615 11.404 29.3142C11.3425 28.4048 11.3015 27.4955 11.24 26.3795C10.9324 26.9168 10.7274 27.2682 10.5429 27.6195C9.59965 29.2522 8.16434 30.1409 6.35994 30.4302C6.09338 30.4302 5.80632 30.4302 5.53976 30.4302C5.41673 30.3889 5.29371 30.3062 5.17068 30.2855C3.16124 29.9962 2.01299 28.7768 1.41836 26.9375C1.25432 26.4622 1.13129 25.9662 0.987762 25.4701C0.987762 24.4368 0.987762 23.4035 0.987762 22.3701ZM11.24 20.6341C11.24 20.5308 11.24 20.2828 11.24 20.0554C11.24 19.1047 11.24 19.0841 10.2763 19.0634C9.43562 19.0427 8.57443 19.0427 7.73374 19.1047C5.90884 19.2701 4.55555 20.4688 4.33 22.1428C4.22747 22.9901 4.20697 23.8581 4.33 24.7055C4.59655 26.6688 6.23692 27.7022 8.04131 27.1028C9.14855 26.7308 9.90722 26.0075 10.3993 24.9535C11.035 23.6308 11.1785 22.2048 11.24 20.6341Z" fill="black"/>
<path d="M88.9521 30.4302C88.788 30.3682 88.6445 30.3062 88.46 30.2856C86.7786 30.0376 85.6508 29.0662 85.0357 27.5162C84.154 25.2842 84.113 23.0108 84.8717 20.7374C85.4663 18.9188 86.7786 17.7614 88.583 17.1827C90.0798 16.7074 91.5971 16.7074 93.1555 16.7487C94.7343 16.7901 94.7138 17.0794 94.6523 15.2194C94.6318 14.6407 94.5908 14.0414 94.4473 13.4834C94.1192 12.016 93.299 11.334 91.7817 11.2307C89.9363 11.1067 88.2754 11.6233 86.7581 12.6773C85.9994 13.194 85.9994 13.194 85.7329 12.3053C85.6303 11.9747 85.5278 11.644 85.3843 11.334C84.9742 10.342 84.9742 10.3627 85.8969 9.90798C88.2139 8.79197 90.6539 8.48197 93.176 8.7093C96.0056 8.97797 97.5844 10.59 97.7075 13.4834C97.81 15.8601 97.7075 18.2367 97.7485 20.6134C97.7895 23.0935 97.8305 25.5528 97.933 28.0329C97.9535 28.6942 98.1996 29.3555 98.3636 30.0996C98.2201 30.1202 97.9945 30.1409 97.7895 30.1409C97.1333 30.1409 96.4977 30.0789 95.8416 30.0996C94.7958 30.1616 94.7753 30.1822 94.6933 29.1075C94.6318 28.2602 94.6728 27.4129 94.6728 26.5655C94.5908 26.5448 94.5293 26.5242 94.4473 26.5035C94.4062 26.5862 94.3447 26.6688 94.3037 26.7515C93.381 28.7562 91.9047 30.0376 89.6902 30.4096C89.5057 30.4302 89.2186 30.4302 88.9521 30.4302ZM92.5198 19.0014C92.1303 19.0221 91.6586 19.0221 91.187 19.0841C89.1366 19.2908 87.8243 20.6341 87.7013 22.7008C87.6603 23.3828 87.6603 24.0855 87.7628 24.7468C88.0499 26.7722 89.8338 27.7849 91.6997 27.0202C92.7249 26.5862 93.422 25.8215 93.8731 24.8088C94.4062 23.6308 94.5908 22.3701 94.6113 21.1095C94.6933 18.7741 95.0419 19.1048 92.5198 19.0014Z" fill="black"/>
<path d="M116.838 30.2235C115.587 30.2028 114.316 30.1615 113.065 30.1615C112.614 30.1615 112.573 30.0168 112.635 29.6035C112.778 28.3015 112.963 26.9995 112.983 25.6975C113.024 22.1221 113.004 18.526 113.004 14.9507C113.004 14.3927 112.983 13.8346 112.881 13.2973C112.635 12.0366 111.815 11.3133 110.543 11.2306C108.206 11.0859 106.873 12.0366 106.278 14.5993C106.094 15.4053 106.032 16.232 106.032 17.0587C106.012 20.4274 106.012 23.8168 106.032 27.1855C106.032 27.9708 106.176 28.7562 106.299 29.5415C106.381 30.0168 106.319 30.1615 105.807 30.1408C104.823 30.0995 103.838 30.0788 102.834 30.0995C102.383 30.1202 102.239 30.0375 102.28 29.5415C102.424 27.7228 102.588 25.9041 102.608 24.0854C102.649 20.5721 102.629 17.0587 102.608 13.5453C102.608 12.8013 102.526 12.0366 102.383 11.2926C102.28 10.7346 102.013 10.1973 101.808 9.63927C103.059 9.3086 104.351 8.97793 105.745 8.60592C105.745 9.63927 105.745 10.6933 105.745 11.7266C105.807 11.7473 105.868 11.768 105.93 11.7886C106.012 11.6646 106.114 11.5613 106.176 11.4373C107.386 9.18459 109.354 8.46125 111.753 8.58525C111.958 8.58525 112.163 8.62659 112.368 8.64725C114.685 8.91592 115.998 10.2799 116.203 12.6153C116.244 13.2353 116.244 13.8553 116.244 14.4753C116.244 18.2574 116.223 22.0601 116.264 25.8421C116.264 26.8135 116.367 27.7641 116.469 28.7148C116.51 29.0662 116.695 29.4175 116.818 29.7688C116.838 29.9548 116.838 30.0788 116.838 30.2235Z" fill="black"/>
<path d="M54.443 30.0995C52.9462 30.0995 51.6339 30.0995 50.2191 30.0995C50.2601 29.8309 50.3011 29.6242 50.3216 29.3969C50.4036 28.7149 50.5676 28.0329 50.5676 27.3509C50.6086 23.4241 50.6497 19.4974 50.6291 15.5707C50.6291 14.7854 50.5266 14 50.3626 13.2147C50.178 12.2847 49.5629 11.7473 48.6197 11.5613C46.8153 11.21 45.0929 12.202 44.7033 14.0207C44.4368 15.2194 44.3753 16.4801 44.3548 17.6994C44.3343 21.2748 44.3958 24.8502 44.4368 28.4462C44.4368 28.7975 44.4573 29.1489 44.5598 29.4795C44.7033 29.9755 44.6418 30.1409 44.0472 30.1202C43.063 30.0582 42.0788 30.0789 41.074 30.1202C40.6435 30.1409 40.5409 30.0375 40.5819 29.6035C41.1971 24.8708 40.9715 20.1174 40.91 15.364C40.8895 14.6407 40.746 13.9174 40.5819 13.2353C40.3564 12.2847 39.7002 11.7887 38.7775 11.6647C36.8501 11.396 35.5583 12.202 35.0867 14.1034C34.8407 15.1367 34.6971 16.2114 34.6971 17.2654C34.6766 21.1301 34.7382 24.9742 34.7997 28.8389C34.7997 29.2522 34.8817 29.6449 34.9227 30.1409C33.6924 30.1409 32.5032 30.1409 31.3139 30.1409C30.9858 30.1409 30.9038 30.0169 30.9653 29.7069C31.4779 27.2268 31.4574 24.7262 31.3959 22.2048C31.2934 19.1048 31.3549 16.0047 31.3139 12.9047C31.2934 11.2513 31.0679 10.714 30.0016 9.43264C30.5142 9.34997 30.9653 9.3293 31.3959 9.22597C32.1546 9.06063 32.9338 8.87463 33.6719 8.66796C34.5946 8.39929 34.5946 8.37862 34.6151 9.41197C34.6151 10.1973 34.6151 10.9827 34.6151 12.0367C34.9227 11.582 35.1072 11.334 35.2713 11.0653C36.6041 9.06063 38.757 8.19262 41.074 8.79196C42.4273 9.1433 43.35 9.99064 43.8217 11.334C43.9242 11.6233 43.9857 11.9127 44.1087 12.326C44.3343 11.954 44.5188 11.6647 44.6828 11.396C46.0977 9.1433 48.5582 8.13062 51.0802 8.75063C52.167 9.0193 53.0282 9.65997 53.3973 10.7347C53.6638 11.5407 53.8689 12.4087 53.8894 13.256C53.9509 16.3974 53.9099 19.5181 53.9509 22.6595C53.9714 25.1188 53.7458 27.6195 54.443 30.0995Z" fill="black"/>
<path d="M22.743 13.1734C23.3582 12.264 23.8093 11.4993 24.3424 10.7967C25.2651 9.63931 26.4748 8.87464 27.9307 8.54397C28.7303 8.35796 28.8329 8.48197 28.7303 9.26731C28.6483 9.90798 28.5253 10.5693 28.4843 11.21C28.4433 11.7473 28.2177 11.8713 27.7051 11.892C25.5316 11.954 24.0143 13.008 23.4197 15.178C23.0301 16.5421 22.8661 18.0094 22.8045 19.4354C22.702 22.0395 22.702 24.6642 22.7225 27.2682C22.7225 28.1775 22.8866 29.1075 22.9891 30.1616C21.7998 30.1616 20.5901 30.1616 19.3803 30.1409C19.2778 30.1409 19.0727 29.8722 19.0727 29.7689C19.7289 24.4575 19.3393 19.1254 19.4213 13.7934C19.4213 13.6487 19.4213 13.5247 19.4213 13.38C19.3598 11.9747 19.3393 10.5487 18.1295 9.51531C19.7084 9.22597 21.2052 8.93664 22.743 8.6473C22.743 10.094 22.743 11.5613 22.743 13.1734Z" fill="black"/>
<path d="M76.0547 9.76327C77.6131 9.3706 79.0279 8.9986 80.5452 8.60593C80.5452 8.85393 80.5657 9.1226 80.5452 9.3706C80.1146 15.3847 80.1966 21.3987 80.4017 27.4128C80.4222 28.2808 80.6887 29.1695 80.8528 30.0788C79.4175 30.0788 77.9822 30.0788 76.4443 30.0788C77.2645 27.5988 77.0184 25.0774 77.0389 22.5768C77.0595 19.3527 77.0595 16.108 77.0389 12.884C77.0184 11.768 76.9979 10.6726 76.0547 9.76327Z" fill="black"/>
<path d="M80.4632 4.24522C80.4222 4.67923 80.4017 5.0099 80.3402 5.34057C80.1761 6.18791 79.725 6.62192 78.9254 6.74592C78.0642 6.89058 77.3465 6.55991 76.9569 5.79524C76.4238 4.72056 76.5058 3.66655 77.121 2.65387C77.5516 1.95119 78.2487 1.80653 79.0074 1.93053C79.725 2.05453 80.1556 2.5092 80.3197 3.21188C80.4222 3.56321 80.4222 3.95588 80.4632 4.24522Z" fill="black"/>
</svg>
