<?xml version="1.0" encoding="UTF-8" standalone="no"?>
<svg
   viewBox="0 0 500 500"
   version="1.1"
   id="svg53"
   sodipodi:docname="ubuntudde.svg"
   width="500"
   height="500"
   inkscape:version="1.1 (c4e8f9ed74, 2021-05-24)"
   xmlns:inkscape="http://www.inkscape.org/namespaces/inkscape"
   xmlns:sodipodi="http://sodipodi.sourceforge.net/DTD/sodipodi-0.dtd"
   xmlns="http://www.w3.org/2000/svg"
   xmlns:svg="http://www.w3.org/2000/svg"
   xmlns:rdf="http://www.w3.org/1999/02/22-rdf-syntax-ns#"
   xmlns:cc="http://creativecommons.org/ns#"
   xmlns:dc="http://purl.org/dc/elements/1.1/">
  <sodipodi:namedview
     id="namedview55"
     pagecolor="#ffffff"
     bordercolor="#666666"
     borderopacity="1.0"
     inkscape:pageshadow="2"
     inkscape:pageopacity="0.0"
     inkscape:pagecheckerboard="0"
     showgrid="false"
     width="500px"
     inkscape:zoom="0.58901995"
     inkscape:cx="515.26268"
     inkscape:cy="483.00571"
     inkscape:window-width="1920"
     inkscape:window-height="1020"
     inkscape:window-x="0"
     inkscape:window-y="32"
     inkscape:window-maximized="1"
     inkscape:current-layer="svg53" />
  <defs
     id="defs4">
    <style
       id="style2">.cls-1{fill:#0097f4;}.cls-2{fill:#fff;}</style>
  </defs>
  <title
     id="title6">ubuntuDDE Official Stacked Logo</title>
  <g
     id="ubuntuDDE_Official_Stacked_Logo"
     data-name="ubuntuDDE Official Stacked Logo"
     transform="matrix(0.71659636,0,0,0.71659636,-107.33927,-96.411595)">
    <path
       d="m 231.5,728.19 q -4,1 -10.47,2.1 a 89.35,89.35 0 0 1 -15.03,1.12 32,32 0 0 1 -12.52,-2.17 20.13,20.13 0 0 1 -8.18,-6.14 25,25 0 0 1 -4.46,-9.35 48.77,48.77 0 0 1 -1.36,-12 V 665.6 H 191 v 33.71 q 0,11.78 3.72,16.85 3.72,5.07 12.52,5.09 c 1.24,0 2.52,0 3.84,-0.13 1.32,-0.13 2.56,-0.18 3.72,-0.31 1.16,-0.13 2.21,-0.25 3.16,-0.37 a 9.58,9.58 0 0 0 2,-0.43 V 665.6 h 11.54 z"
       id="path8" />
    <path
       d="m 262.85,668.45 a 31.22,31.22 0 0 1 6.39,-2.85 30,30 0 0 1 9.85,-1.49 29.22,29.22 0 0 1 12.33,2.48 25.61,25.61 0 0 1 9.11,6.94 30.61,30.61 0 0 1 5.64,10.66 45.86,45.86 0 0 1 1.92,13.63 40.63,40.63 0 0 1 -2.29,14.07 29.57,29.57 0 0 1 -6.51,10.59 28.64,28.64 0 0 1 -10.16,6.7 36.14,36.14 0 0 1 -13.39,2.35 81.49,81.49 0 0 1 -14.25,-1.11 q -6.19,-1.12 -10.16,-2.23 v -92.34 l 11.52,-2 z m 0,51.56 a 37.61,37.61 0 0 0 4.9,0.93 59.4,59.4 0 0 0 7.87,0.43 q 9.3,0 14.87,-6.13 5.57,-6.13 5.58,-17.42 a 41.68,41.68 0 0 0 -1,-9.29 21.1,21.1 0 0 0 -3.22,-7.5 15.59,15.59 0 0 0 -5.77,-5 18.48,18.48 0 0 0 -8.49,-1.8 22.68,22.68 0 0 0 -8.67,1.62 23.86,23.86 0 0 0 -6.08,3.34 z"
       id="path10" />
    <path
       d="m 375.63,728.19 q -4,1 -10.47,2.1 a 89.35,89.35 0 0 1 -15.06,1.12 32,32 0 0 1 -12.51,-2.17 20.06,20.06 0 0 1 -8.18,-6.14 24.84,24.84 0 0 1 -4.47,-9.35 48.77,48.77 0 0 1 -1.36,-12 V 665.6 h 11.53 v 33.71 q 0,11.78 3.71,16.85 3.71,5.07 12.52,5.09 c 1.24,0 2.52,0 3.84,-0.13 1.32,-0.13 2.56,-0.18 3.72,-0.31 1.16,-0.13 2.21,-0.25 3.16,-0.37 a 9.58,9.58 0 0 0 2.05,-0.43 V 665.6 h 11.52 z"
       id="path12" />
    <path
       d="m 395.46,667.46 q 4,-1 10.54,-2.11 a 91.42,91.42 0 0 1 15.12,-1.11 32.57,32.57 0 0 1 12.76,2.17 19.87,19.87 0 0 1 8.12,6.07 23.42,23.42 0 0 1 4.27,9.36 54,54 0 0 1 1.24,12 v 36.19 H 436 v -33.7 a 54.75,54.75 0 0 0 -0.81,-10.16 17.15,17.15 0 0 0 -2.66,-6.81 10.52,10.52 0 0 0 -5,-3.78 21.68,21.68 0 0 0 -7.68,-1.18 c -1.24,0 -2.52,0 -3.85,0.12 -1.33,0.12 -2.58,0.19 -3.78,0.31 -1.2,0.12 -2.27,0.27 -3.22,0.44 -0.95,0.17 -1.63,0.29 -2,0.37 v 54.41 h -11.54 z"
       id="path14" />
    <path
       d="m 477.38,665.6 h 24.42 v 9.67 H 477.38 V 705 a 36.05,36.05 0 0 0 0.74,8 12.09,12.09 0 0 0 2.23,5 8.05,8.05 0 0 0 3.72,2.54 16.4,16.4 0 0 0 5.21,0.75 24.54,24.54 0 0 0 8.36,-1.18 c 2.11,-0.79 3.58,-1.34 4.4,-1.67 l 2.23,9.54 a 42.56,42.56 0 0 1 -6.07,2.17 34.8,34.8 0 0 1 -9.91,1.3 30.21,30.21 0 0 1 -10.85,-1.67 15.87,15.87 0 0 1 -6.88,-5 20.18,20.18 0 0 1 -3.65,-8.25 54.45,54.45 0 0 1 -1.05,-11.34 v -57.5 l 11.52,-2 z"
       id="path16" />
    <path
       d="m 567.73,728.19 q -4,1 -10.47,2.1 a 89.35,89.35 0 0 1 -15.06,1.12 32,32 0 0 1 -12.52,-2.17 20.13,20.13 0 0 1 -8.18,-6.14 24.83,24.83 0 0 1 -4.46,-9.35 48.77,48.77 0 0 1 -1.36,-12 V 665.6 h 11.52 v 33.71 q 0,11.78 3.72,16.85 3.72,5.07 12.52,5.09 c 1.24,0 2.52,0 3.84,-0.13 1.32,-0.13 2.56,-0.18 3.72,-0.31 1.16,-0.13 2.21,-0.25 3.16,-0.37 a 9.32,9.32 0 0 0 2,-0.43 V 665.6 h 11.53 z"
       id="path18" />
    <path
       d="m 658.82,687 a 49.83,49.83 0 0 1 -3.47,19.4 36.07,36.07 0 0 1 -9.79,13.63 41.56,41.56 0 0 1 -15.12,8 66.39,66.39 0 0 1 -19.34,2.67 q -5.21,0 -11.46,-0.44 A 67.58,67.58 0 0 1 588.3,728.59 V 645.4 a 67.58,67.58 0 0 1 11.34,-1.67 q 6.25,-0.43 11.46,-0.44 a 66.39,66.39 0 0 1 19.34,2.71 41.56,41.56 0 0 1 15.12,8 36,36 0 0 1 9.79,13.63 49.83,49.83 0 0 1 3.47,19.37 z m -46.72,33.25 q 17.1,0 25.53,-8.73 8.43,-8.73 8.42,-24.52 0,-15.74 -8.42,-24.48 -8.42,-8.74 -25.53,-8.73 c -3.39,0 -6,0 -7.87,0.12 -1.87,0.12 -3.17,0.17 -3.91,0.25 v 65.68 c 0.74,0.09 2,0.17 3.91,0.25 1.91,0.08 4.48,0.16 7.87,0.16 z"
       id="path20" />
    <path
       d="m 747.18,687 a 49.65,49.65 0 0 1 -3.47,19.4 35.86,35.86 0 0 1 -9.79,13.63 41.4,41.4 0 0 1 -15.12,8 66.37,66.37 0 0 1 -19.33,2.67 q -5.21,0 -11.47,-0.44 a 67.58,67.58 0 0 1 -11.34,-1.67 V 645.4 A 67.58,67.58 0 0 1 688,643.73 q 6.27,-0.43 11.47,-0.44 a 66.37,66.37 0 0 1 19.33,2.71 41.4,41.4 0 0 1 15.12,8 35.78,35.78 0 0 1 9.79,13.63 49.65,49.65 0 0 1 3.47,19.37 z m -46.72,33.21 q 17.1,0 25.53,-8.73 8.43,-8.73 8.43,-24.48 0,-15.74 -8.43,-24.48 -8.43,-8.74 -25.53,-8.73 -5.09,0 -7.87,0.12 c -1.86,0.08 -3.16,0.17 -3.9,0.25 v 65.68 c 0.74,0.09 2,0.17 3.9,0.25 1.9,0.08 4.48,0.16 7.87,0.16 z"
       id="path22" />
    <path
       d="m 765,730.05 v -85.89 h 52.42 v 10.28 h -40.4 V 680 H 813 v 10 h -35.95 v 29.75 h 43.5 v 10.29 z"
       id="path24" />
    <circle
       class="cls-1"
       cx="500"
       cy="427.17999"
       r="158.71001"
       id="circle26" />
    <rect
       class="cls-2"
       x="442.89001"
       y="373.10001"
       width="164.57001"
       height="4.8400002"
       transform="rotate(29.22,525.17838,375.5128)"
       id="rect28" />
    <rect
       class="cls-2"
       x="436.44"
       y="384.89999"
       width="164.58"
       height="4.8400002"
       transform="rotate(29.22,518.72895,387.3135)"
       id="rect30" />
    <rect
       class="cls-2"
       x="365.32999"
       y="422.37"
       width="154.92999"
       height="4.8400002"
       transform="rotate(-89.99,442.76071,424.79344)"
       id="rect32" />
    <rect
       class="cls-2"
       x="378.78"
       y="422.25"
       width="154.94"
       height="4.8400002"
       transform="rotate(-89.99,456.21187,424.67225)"
       id="rect34" />
    <circle
       class="cls-1"
       cx="451.07999"
       cy="341.03"
       r="34.790001"
       id="circle36" />
    <rect
       class="cls-2"
       x="437.34"
       y="452.87"
       width="162.14999"
       height="4.8400002"
       transform="rotate(-29.01,518.51479,455.34557)"
       id="rect38" />
    <rect
       class="cls-2"
       x="443.97"
       y="464.56"
       width="162.16"
       height="4.8400002"
       transform="rotate(-29.01,525.15897,467.04465)"
       id="rect40" />
    <circle
       class="cls-1"
       cx="451.69"
       cy="502.13"
       r="34.790001"
       id="circle42" />
    <circle
       class="cls-1"
       cx="592.65002"
       cy="422.19"
       r="34.790001"
       id="circle44" />
    <circle
       class="cls-2"
       cx="451.17001"
       cy="341.10999"
       r="30.52"
       id="circle46" />
    <circle
       class="cls-2"
       cx="592.78998"
       cy="422.29999"
       r="30.52"
       id="circle48" />
    <circle
       class="cls-2"
       cx="451.78"
       cy="502.26001"
       r="30.52"
       id="circle50" />
  </g>
  <metadata
     id="metadata1056">
    <rdf:RDF>
      <cc:Work
         rdf:about="">
        <dc:title>ubuntuDDE Official Stacked Logo</dc:title>
      </cc:Work>
    </rdf:RDF>
  </metadata>
</svg>
