<svg width="145" height="146" viewBox="0 0 145 146" fill="none" xmlns="http://www.w3.org/2000/svg">
<g id="Colorful Icon Copy">
<g id="Vignette Icon">
<g id="icon">
<mask id="mask0_0_203" style="mask-type:alpha" maskUnits="userSpaceOnUse" x="0" y="0" width="145" height="146">
<path id="Shape" fill-rule="evenodd" clip-rule="evenodd" d="M9.34693 0.921661H114.723C123.001 0.921661 130.067 3.80293 135.92 9.56577C141.773 15.3283 144.7 22.2847 144.7 30.4342V136.415C144.7 138.885 143.813 140.993 142.039 142.739C140.266 144.486 138.124 145.359 135.616 145.359C133.107 145.359 130.966 144.486 129.192 142.739C127.419 140.993 126.532 138.885 126.532 136.415V30.4342C126.532 27.2238 125.379 24.4837 123.073 22.2136C120.768 19.9437 117.984 18.8085 114.723 18.8085H9.34693C6.83848 18.8085 4.69736 17.9353 2.92357 16.189C1.14978 14.4426 0.262882 12.3348 0.262882 9.86506C0.262882 7.39536 1.14978 5.28749 2.92357 3.54116C4.69736 1.79483 6.83848 0.921661 9.34693 0.921661ZM62.9442 38.0374H62.9424C60.434 38.0374 58.2931 38.9102 56.5197 40.6566C54.7459 42.4026 53.8593 44.5105 53.8593 46.9798V70.2347C53.8593 72.7041 54.7459 74.8117 56.5197 76.558C58.2931 78.304 60.434 79.1772 62.9424 79.1772H62.9442C65.4524 79.1772 67.5932 78.304 69.367 76.558C71.1405 74.8117 72.0274 72.7041 72.0274 70.2347V46.9798C72.0274 44.5105 71.1405 42.4026 69.367 40.6566C67.5932 38.9102 65.4524 38.0374 62.9442 38.0374ZM97.4635 38.0374H97.4617C94.9533 38.0374 92.8124 38.9102 91.0389 40.6566C89.2651 42.4026 88.3785 44.5105 88.3785 46.9798V70.2347C88.3785 72.7041 89.2651 74.8117 91.0389 76.558C92.8124 78.304 94.9533 79.1772 97.4617 79.1772H97.4635C99.9717 79.1772 102.113 78.304 103.886 76.558C105.66 74.8117 106.547 72.7041 106.547 70.2347V46.9798C106.547 44.5105 105.66 42.4026 103.886 40.6566C102.113 38.9102 99.9717 38.0374 97.4635 38.0374ZM30.2395 145.358H63.8515C66.36 145.358 68.5011 144.485 70.2749 142.739C72.0487 140.993 72.9356 138.885 72.9356 136.415C72.9356 133.945 72.0487 131.837 70.2749 130.091C68.5011 128.345 66.36 127.472 63.8515 127.472H30.2395C26.9787 127.472 24.1953 126.337 21.8898 124.067C19.5839 121.796 18.431 119.056 18.431 115.846V79.6241C18.431 77.1544 17.5441 75.0462 15.7703 73.2999C13.9968 71.5536 11.8554 70.6804 9.34693 70.6804C6.83848 70.6804 4.69736 71.5536 2.92357 73.2999C1.14978 75.0462 0.262882 77.1544 0.262882 79.6241V115.846C0.262882 123.995 3.18961 130.952 9.04306 136.714C14.8962 142.477 21.9618 145.358 30.2395 145.358ZM88.3785 136.415C88.3785 131.476 92.4454 127.472 97.4626 127.472C102.479 127.472 106.547 131.476 106.547 136.415C106.547 141.355 102.479 145.359 97.4626 145.359C92.4454 145.359 88.3785 141.355 88.3785 136.415Z" fill="white"/>
</mask>
<g mask="url(#mask0_0_203)">
<g id="Pattern">
<rect id="Rectangle" x="-37.0791" y="-47.5907" width="288.874" height="288.874" fill="#323232"/>
<g id="Blues" filter="url(#filter0_d_0_203)">
<ellipse id="Ellipse 5" cx="111.594" cy="105.696" rx="33.4467" ry="33.4467" fill="url(#paint0_linear_0_203)"/>
<ellipse id="Ellipse 12" cx="13.0975" cy="88.4719" rx="33.4467" ry="33.4467" fill="url(#paint1_linear_0_203)"/>
<ellipse id="Ellipse 13" cx="67.3496" cy="96.5305" rx="33.4467" ry="33.4467" fill="url(#paint2_linear_0_203)"/>
<ellipse id="Ellipse 16" cx="34.1662" cy="171.43" rx="33.4467" ry="33.4467" fill="url(#paint3_linear_0_203)"/>
<ellipse id="Ellipse 17" cx="24.1584" cy="137.615" rx="33.4467" ry="33.4467" fill="url(#paint4_linear_0_203)"/>
<ellipse id="Ellipse 7" cx="145.304" cy="134.297" rx="33.4467" ry="33.4467" fill="url(#paint5_linear_0_203)"/>
<ellipse id="Ellipse 9" cx="99.6845" cy="163.393" rx="33.4468" ry="33.4467" fill="url(#paint6_linear_0_203)"/>
<ellipse id="Ellipse 18" cx="71.6171" cy="150.146" rx="33.4462" ry="33.4458" transform="rotate(-82 71.6171 150.146)" fill="url(#paint7_linear_0_203)"/>
</g>
<g id="Reds" filter="url(#filter1_d_0_203)">
<ellipse id="Ellipse 14" cx="157.28" cy="12.1622" rx="42.2653" ry="42.2656" transform="rotate(19 157.28 12.1622)" fill="url(#paint8_linear_0_203)"/>
<ellipse id="Ellipse 4" cx="122.368" cy="41.5886" rx="42.2653" ry="42.2656" transform="rotate(19 122.368 41.5886)" fill="url(#paint9_linear_0_203)"/>
<ellipse id="Ellipse 15" cx="99.6233" cy="-24.2475" rx="42.2653" ry="42.2656" transform="rotate(19 99.6233 -24.2475)" fill="url(#paint10_linear_0_203)"/>
<ellipse id="Ellipse 8" cx="61.5442" cy="34.3922" rx="42.2653" ry="42.2656" transform="rotate(19 61.5442 34.3922)" fill="url(#paint11_linear_0_203)"/>
<ellipse id="Ellipse 11" cx="90.3973" cy="75.6208" rx="42.2653" ry="42.2656" transform="rotate(19 90.3973 75.6208)" fill="url(#paint12_linear_0_203)"/>
<g id="Ellipse 19" filter="url(#filter2_d_0_203)">
<ellipse cx="169.317" cy="71.5503" rx="42.2653" ry="42.2656" transform="rotate(19 169.317 71.5503)" fill="url(#paint13_linear_0_203)"/>
</g>
</g>
</g>
</g>
</g>
</g>
</g>
<defs>
<filter id="filter0_d_0_203" x="-27.3493" y="51.0252" width="213.1" height="163.852" filterUnits="userSpaceOnUse" color-interpolation-filters="sRGB">
<feFlood flood-opacity="0" result="BackgroundImageFix"/>
<feColorMatrix in="SourceAlpha" type="matrix" values="0 0 0 0 0 0 0 0 0 0 0 0 0 0 0 0 0 0 127 0" result="hardAlpha"/>
<feOffset dy="3"/>
<feGaussianBlur stdDeviation="3.5"/>
<feColorMatrix type="matrix" values="0 0 0 0 0.392157 0 0 0 0 0.392157 0 0 0 0 0.392157 0 0 0 0.498039 0"/>
<feBlend mode="normal" in2="BackgroundImageFix" result="effect1_dropShadow_0_203"/>
<feBlend mode="normal" in="SourceGraphic" in2="effect1_dropShadow_0_203" result="shape"/>
</filter>
<filter id="filter1_d_0_203" x="12.2673" y="-70.5246" width="267.901" height="198.422" filterUnits="userSpaceOnUse" color-interpolation-filters="sRGB">
<feFlood flood-opacity="0" result="BackgroundImageFix"/>
<feColorMatrix in="SourceAlpha" type="matrix" values="0 0 0 0 0 0 0 0 0 0 0 0 0 0 0 0 0 0 127 0" result="hardAlpha"/>
<feOffset dy="3"/>
<feGaussianBlur stdDeviation="3.5"/>
<feColorMatrix type="matrix" values="0 0 0 0 0.392157 0 0 0 0 0.392157 0 0 0 0 0.392157 0 0 0 0.498039 0"/>
<feBlend mode="normal" in2="BackgroundImageFix" result="effect1_dropShadow_0_203"/>
<feBlend mode="normal" in="SourceGraphic" in2="effect1_dropShadow_0_203" result="shape"/>
</filter>
<filter id="filter2_d_0_203" x="120.04" y="25.2732" width="98.5537" height="98.5542" filterUnits="userSpaceOnUse" color-interpolation-filters="sRGB">
<feFlood flood-opacity="0" result="BackgroundImageFix"/>
<feColorMatrix in="SourceAlpha" type="matrix" values="0 0 0 0 0 0 0 0 0 0 0 0 0 0 0 0 0 0 127 0" result="hardAlpha"/>
<feOffset dy="3"/>
<feGaussianBlur stdDeviation="3.5"/>
<feColorMatrix type="matrix" values="0 0 0 0 0.392157 0 0 0 0 0.392157 0 0 0 0 0.392157 0 0 0 0.498039 0"/>
<feBlend mode="normal" in2="BackgroundImageFix" result="effect1_dropShadow_0_203"/>
<feBlend mode="normal" in="SourceGraphic" in2="effect1_dropShadow_0_203" result="shape"/>
</filter>
<linearGradient id="paint0_linear_0_203" x1="168.492" y1="88.928" x2="105.251" y2="55.747" gradientUnits="userSpaceOnUse">
<stop stop-color="#005BEA"/>
<stop offset="1" stop-color="#00C6FB"/>
</linearGradient>
<linearGradient id="paint1_linear_0_203" x1="69.9957" y1="71.7043" x2="6.75422" y2="38.5234" gradientUnits="userSpaceOnUse">
<stop stop-color="#005BEA"/>
<stop offset="1" stop-color="#00C6FB"/>
</linearGradient>
<linearGradient id="paint2_linear_0_203" x1="124.248" y1="79.7629" x2="61.0063" y2="46.5819" gradientUnits="userSpaceOnUse">
<stop stop-color="#005BEA"/>
<stop offset="1" stop-color="#00C6FB"/>
</linearGradient>
<linearGradient id="paint3_linear_0_203" x1="91.0644" y1="154.663" x2="27.823" y2="121.482" gradientUnits="userSpaceOnUse">
<stop stop-color="#005BEA"/>
<stop offset="1" stop-color="#00C6FB"/>
</linearGradient>
<linearGradient id="paint4_linear_0_203" x1="81.0566" y1="120.847" x2="17.8151" y2="87.6664" gradientUnits="userSpaceOnUse">
<stop stop-color="#005BEA"/>
<stop offset="1" stop-color="#00C6FB"/>
</linearGradient>
<linearGradient id="paint5_linear_0_203" x1="202.202" y1="117.529" x2="138.961" y2="84.3481" gradientUnits="userSpaceOnUse">
<stop stop-color="#005BEA"/>
<stop offset="1" stop-color="#00C6FB"/>
</linearGradient>
<linearGradient id="paint6_linear_0_203" x1="156.583" y1="146.626" x2="93.3412" y2="113.445" gradientUnits="userSpaceOnUse">
<stop stop-color="#005BEA"/>
<stop offset="1" stop-color="#00C6FB"/>
</linearGradient>
<linearGradient id="paint7_linear_0_203" x1="128.514" y1="133.379" x2="65.2743" y2="100.198" gradientUnits="userSpaceOnUse">
<stop stop-color="#005BEA"/>
<stop offset="1" stop-color="#00C6FB"/>
</linearGradient>
<linearGradient id="paint8_linear_0_203" x1="166.184" y1="-47.6089" x2="85.3896" y2="40.9614" gradientUnits="userSpaceOnUse">
<stop stop-color="#A445B2"/>
<stop offset="0.5" stop-color="#D41872"/>
<stop offset="1" stop-color="#FF0066"/>
</linearGradient>
<linearGradient id="paint9_linear_0_203" x1="131.272" y1="-18.1825" x2="50.4774" y2="70.3878" gradientUnits="userSpaceOnUse">
<stop stop-color="#A445B2"/>
<stop offset="0.5" stop-color="#D41872"/>
<stop offset="1" stop-color="#FF0066"/>
</linearGradient>
<linearGradient id="paint10_linear_0_203" x1="108.527" y1="-84.0186" x2="27.7328" y2="4.55172" gradientUnits="userSpaceOnUse">
<stop stop-color="#A445B2"/>
<stop offset="0.5" stop-color="#D41872"/>
<stop offset="1" stop-color="#FF0066"/>
</linearGradient>
<linearGradient id="paint11_linear_0_203" x1="70.4483" y1="-25.3789" x2="-10.3463" y2="63.1914" gradientUnits="userSpaceOnUse">
<stop stop-color="#A445B2"/>
<stop offset="0.5" stop-color="#D41872"/>
<stop offset="1" stop-color="#FF0066"/>
</linearGradient>
<linearGradient id="paint12_linear_0_203" x1="99.3015" y1="15.8496" x2="18.5068" y2="104.42" gradientUnits="userSpaceOnUse">
<stop stop-color="#FF0066"/>
<stop offset="0.5" stop-color="#D41872"/>
<stop offset="1" stop-color="#A445B2"/>
</linearGradient>
<linearGradient id="paint13_linear_0_203" x1="151.565" y1="47.2007" x2="152.15" y2="102.585" gradientUnits="userSpaceOnUse">
<stop stop-color="#A445B2"/>
<stop offset="0.5" stop-color="#D41872"/>
<stop offset="1" stop-color="#FF0066"/>
</linearGradient>
</defs>
</svg>
