<svg width="111" height="58" viewBox="0 0 111 58" fill="none" xmlns="http://www.w3.org/2000/svg">
<path d="M35.4793 48.7794C34.7248 49.0862 34.0542 49.365 33.3743 49.6253C32.6105 49.9135 31.8468 50.2481 31.0644 50.4526C29.63 50.8244 28.8942 50.0343 29.3972 48.64C29.63 47.9986 30.0305 47.3944 30.4497 46.8553C30.9992 46.1675 31.6512 45.554 32.2566 44.9126C32.5174 44.6337 32.7875 44.3456 33.0483 44.0574C33.514 43.5462 33.7468 43.0071 33.6351 42.2542C33.2625 39.7351 33.1787 37.1975 33.4022 34.6599C33.7468 30.8117 34.9949 27.298 37.2117 24.1284C37.5097 23.7008 37.5284 23.3661 37.2024 23.0315C36.1592 21.9719 35.1812 20.8378 34.0356 19.899C27.9442 14.9353 21.3498 10.8082 14.0568 7.81514C10.2288 6.25353 6.50312 4.49673 2.97308 2.34022C2.40492 1.9963 1.8647 1.5966 1.3338 1.2062C1.14751 1.06677 0.961231 0.899453 0.868091 0.694957C0.793578 0.546232 0.812206 0.285965 0.896033 0.146535C0.961231 0.0349921 1.21271 -0.0207796 1.37105 0.00710626C1.61322 0.0442874 1.84607 0.155831 2.06961 0.248784C5.06875 1.5873 8.03063 3.00948 11.0763 4.22716C13.3583 5.1381 15.7427 5.78877 18.0805 6.56957C22.6165 8.07541 26.7613 10.362 30.6639 13.0949C33.8866 15.3443 36.9043 17.8447 39.7172 20.5962C39.801 20.6798 39.8941 20.7635 40.0059 20.8657C40.5741 20.5683 41.1422 20.2987 41.7011 19.9827C44.3277 18.4861 47.0939 18.1701 50.0558 18.7464C53.9957 19.5086 57.9635 20.1593 61.922 20.8006C63.9711 21.1353 66.0481 21.3119 68.1345 21.0609C69.1777 20.9401 69.9414 20.4753 70.3326 19.4714C70.5934 18.8115 70.8635 18.1515 71.1243 17.4915C71.4223 16.7479 71.7949 16.0693 72.4562 15.5674C72.568 15.4837 72.6052 15.2142 72.5773 15.0469C72.3444 13.9779 72.0557 12.909 71.8415 11.8307C71.5807 10.5294 71.4875 9.21873 71.8787 7.92668C72.1302 7.0994 72.5773 6.41155 73.2665 5.88172C74.3004 5.07303 75.2877 5.07303 76.3122 5.90031C77.2995 6.69971 77.9515 7.75937 78.5011 8.8748C79.1903 10.2598 79.8237 11.6727 80.4756 13.0763C80.7271 13.5968 81.1183 13.792 81.6772 13.6805C81.9566 13.6247 82.0497 13.5317 81.9659 13.2064C81.5468 11.5611 81.1183 9.90658 80.783 8.24272C80.5502 7.07152 80.5315 5.87243 80.8203 4.69193C81.286 2.82358 83.1302 1.70814 84.9557 2.1822C85.8033 2.40529 86.3808 2.96301 86.8279 3.68804C87.6102 4.98008 87.9362 6.41155 88.0666 7.88021C88.2063 9.479 88.2529 11.0964 88.2809 12.7045C88.2902 13.1785 88.4019 13.3737 88.8863 13.4481C90.9074 13.7548 92.9286 14.0802 94.9404 14.452C98.2097 15.0655 101.423 15.8741 104.432 17.3335C106.155 18.1608 107.729 19.1926 108.93 20.7077C109.573 21.5164 110.001 22.4273 110.271 23.4405C110.56 24.5188 110.346 25.4948 109.75 26.4057C109.07 27.4468 108.166 28.2648 107.188 29.0177C104.385 31.1835 101.255 32.7823 98.0886 34.3253C96.2258 35.2362 94.3257 36.0821 92.4722 37.0116C91.0285 37.7366 90.5535 39.2518 91.2707 40.674C91.4383 41.0086 91.7084 41.306 91.9599 41.6035C93.1614 43.0071 94.4095 44.3642 95.5552 45.8049C95.9929 46.3534 96.2817 47.0691 96.4773 47.757C96.7567 48.7237 96.3189 49.2442 95.3409 49.1048C94.3536 48.9653 93.3664 48.6958 92.407 48.4169C90.5908 47.8871 88.7931 47.3108 86.9862 46.7531C86.8651 46.7159 86.744 46.688 86.623 46.6787C86.418 46.6694 86.2038 46.6787 85.9989 46.6787C86.0548 46.9111 86.0548 47.1714 86.1852 47.3573C86.4926 47.8034 86.8372 48.2217 87.1911 48.6307C87.9642 49.5231 88.7745 50.3782 89.529 51.2799C90.0599 51.9119 90.4697 52.6277 90.628 53.455C90.7398 54.0406 90.6466 54.589 90.3486 55.1095C89.9667 55.7788 89.678 55.9368 88.9422 55.7695C88.1598 55.5836 87.3681 55.3977 86.623 55.0909C83.1767 53.6688 79.7398 52.2001 76.3029 50.7407C75.9397 50.5827 75.6044 50.5177 75.1946 50.5827C68.9634 51.568 62.7044 51.9305 56.408 51.6052C52.3378 51.3914 48.3141 50.8523 44.3928 49.7183C44.0855 49.6253 43.8619 49.6904 43.6291 49.8856C42.0643 51.252 40.4996 52.6184 38.9162 53.9662C37.9754 54.7749 37.0161 55.5557 36.0567 56.3458C35.8053 56.5503 35.5351 56.7362 35.2557 56.9128C34.8832 57.1452 34.5013 57.4798 34.0169 57.201C33.5233 56.9128 33.4954 56.383 33.5978 55.9182C33.8214 54.8585 34.0915 53.8082 34.3709 52.7671C34.6876 51.6238 35.0415 50.4805 35.3675 49.3372C35.442 49.1884 35.4513 49.0304 35.4793 48.7794ZM88.9049 19.4714C88.9422 19.49 88.9701 19.5086 89.0074 19.5179C89.0167 19.6387 89.0074 19.7689 89.0353 19.8897C89.1657 20.559 89.5103 21.0702 90.1902 21.2747C90.7677 21.442 91.2614 21.2468 91.6526 20.8006C92.2766 20.0942 92.258 18.9416 91.6246 18.2537C91.0099 17.5845 90.0226 17.5845 89.4824 18.3002C89.203 18.6256 89.0819 19.0717 88.9049 19.4714ZM92.6864 34.0557C94.3071 33.2005 95.8812 32.2803 97.092 30.8767C97.1945 30.7652 97.3062 30.6258 97.3342 30.4863C97.3714 30.2168 97.3528 29.9379 97.3621 29.6683C97.1386 29.7241 96.8685 29.7148 96.6822 29.8357C95.0243 30.9139 93.7669 32.4012 92.6864 34.0557ZM86.4274 19.3134C86.3715 19.5086 86.3342 19.6387 86.3063 19.7596C86.092 21.0981 86.9489 22.9014 88.1132 23.5985C89.0632 24.1655 90.4231 23.9889 91.1775 23.1988C87.7593 22.5389 87.7313 22.511 86.4274 19.3134ZM89.8549 30.4213C89.8829 30.4677 89.9015 30.5049 89.9295 30.5514C92.2393 29.7799 94.5772 29.0734 96.617 27.6977C96.5984 27.6234 96.5797 27.549 96.5611 27.4747C96.2817 27.4932 95.9836 27.4282 95.7414 27.5304C94.484 28.0417 93.2266 28.5622 92.0065 29.1571C91.2521 29.5103 90.5628 29.9937 89.8549 30.4213Z" fill="#787878"/>
<path d="M106.155 16.4027C106.285 15.9472 106.369 15.5661 106.509 15.2129C107.282 13.3074 108.344 11.5691 109.647 9.97035C109.797 9.79374 109.955 9.60783 110.141 9.48699C110.29 9.39404 110.504 9.39404 110.691 9.34756C110.728 9.53347 110.802 9.71938 110.784 9.89599C110.765 10.0912 110.672 10.2864 110.588 10.463C109.666 12.2477 108.753 14.0417 107.813 15.8171C107.645 16.1424 107.412 16.4492 107.151 16.7094C107.002 16.8582 106.686 17.0348 106.537 16.9697C106.36 16.8953 106.276 16.5886 106.155 16.4027Z" fill="#787878"/>
<path d="M105.875 9.83089C105.782 11.7643 105.587 13.6791 105.046 15.5475C104.953 15.8635 104.916 16.3562 104.45 16.3004C103.957 16.2446 104.012 15.752 104.022 15.3988C104.068 13.1586 104.497 10.9835 105.093 8.8363C105.139 8.65969 105.363 8.52955 105.512 8.38083C105.633 8.56673 105.81 8.75264 105.857 8.95714C105.922 9.23599 105.875 9.54274 105.875 9.83089Z" fill="#787878"/>
</svg>
